<svg width="24" height="24" viewBox="0 0 24 24" fill="none" xmlns="http://www.w3.org/2000/svg">
<path d="M20.944 12.979C20.455 17.488 16.638 21 12 21C10.7185 21 9.4519 20.7256 8.28535 20.1952C7.1188 19.6648 6.07937 18.8907 5.237 17.925L6.482 16.292C7.13434 17.1343 7.97071 17.8162 8.92712 18.2856C9.88353 18.7549 10.9346 18.9993 12 19C15.526 19 18.444 16.376 18.923 12.979H16L20 7.729L24 12.979H20.944ZM5.08 11C5.567 7.613 8.48 5 12 5C13.0632 5.00064 14.1122 5.24402 15.0671 5.71158C16.022 6.17914 16.8575 6.85855 17.51 7.698L18.754 6.066C17.912 5.10287 16.8737 4.331 15.7088 3.80219C14.5439 3.27338 13.2793 2.99986 12 3C7.368 3 3.557 6.501 3.059 11H0L4 16.25L8 11H5.08Z" fill="#78CCD0"/>
</svg>
