<svg width="16" height="18" viewBox="0 0 16 18" fill="none" xmlns="http://www.w3.org/2000/svg">
<path fill-rule="evenodd" clip-rule="evenodd" d="M12.6498 1.05078C12.6498 0.636571 12.314 0.300781 11.8998 0.300781C11.4856 0.300781 11.1498 0.636571 11.1498 1.05078V3.30078C11.1498 3.38361 11.0826 3.45078 10.9998 3.45078H4.9998C4.91698 3.45078 4.8498 3.38361 4.8498 3.30078V1.05078C4.8498 0.636571 4.51401 0.300781 4.0998 0.300781C3.68559 0.300781 3.3498 0.636571 3.3498 1.05078V3.30078C3.3498 3.38361 3.28263 3.45078 3.1998 3.45078H1.9998C1.33707 3.45078 0.799805 3.98805 0.799805 4.65078V6.30078H15.1998V4.65078C15.1998 3.98805 14.6625 3.45078 13.9998 3.45078H12.7998C12.717 3.45078 12.6498 3.38361 12.6498 3.30078V1.05078ZM15.1998 7.80078H0.799805V16.6508C0.799805 17.3135 1.33707 17.8508 1.9998 17.8508H13.9998C14.6625 17.8508 15.1998 17.3135 15.1998 16.6508V7.80078Z" fill="#A0ABB5"/>
</svg>
