<svg width="4" height="14" viewBox="0 0 4 14" fill="none" xmlns="http://www.w3.org/2000/svg">
<path d="M2.66667 0.636364H1.33333C0.965144 0.636364 0.666667 0.921273 0.666667 1.27273V2.54545C0.666667 2.89691 0.965144 3.18182 1.33333 3.18182H2.66667C3.03486 3.18182 3.33333 2.89691 3.33333 2.54545V1.27273C3.33333 0.921273 3.03486 0.636364 2.66667 0.636364Z" fill="#A0ABB5"/>
<path d="M2.66667 5.72727H1.33333C0.965144 5.72727 0.666667 6.01218 0.666667 6.36364V7.63636C0.666667 7.98782 0.965144 8.27273 1.33333 8.27273H2.66667C3.03486 8.27273 3.33333 7.98782 3.33333 7.63636V6.36364C3.33333 6.01218 3.03486 5.72727 2.66667 5.72727Z" fill="#A0ABB5"/>
<path d="M2.66667 10.8182H1.33333C0.965144 10.8182 0.666667 11.1031 0.666667 11.4545V12.7273C0.666667 13.0787 0.965144 13.3636 1.33333 13.3636H2.66667C3.03486 13.3636 3.33333 13.0787 3.33333 12.7273V11.4545C3.33333 11.1031 3.03486 10.8182 2.66667 10.8182Z" fill="#A0ABB5"/>
<path fill-rule="evenodd" clip-rule="evenodd" d="M0 1.27273C0 0.569819 0.596954 0 1.33333 0H2.66667C3.40305 0 4 0.569819 4 1.27273V2.54545C4 3.24836 3.40305 3.81818 2.66667 3.81818H1.33333C0.596954 3.81818 0 3.24836 0 2.54545V1.27273ZM2.66667 1.90909C2.66667 1.55764 2.38176 1.27273 2.0303 1.27273H1.9697C1.61824 1.27273 1.33333 1.55764 1.33333 1.90909C1.33333 2.26054 1.61824 2.54545 1.9697 2.54545H2.0303C2.38176 2.54545 2.66667 2.26054 2.66667 1.90909ZM0 6.36364C0 5.66073 0.596954 5.09091 1.33333 5.09091H2.66667C3.40305 5.09091 4 5.66073 4 6.36364V7.63636C4 8.33927 3.40305 8.90909 2.66667 8.90909H1.33333C0.596954 8.90909 0 8.33927 0 7.63636V6.36364ZM2.66667 7C2.66667 6.64855 2.38176 6.36364 2.0303 6.36364H1.9697C1.61824 6.36364 1.33333 6.64855 1.33333 7C1.33333 7.35145 1.61824 7.63636 1.9697 7.63636H2.0303C2.38176 7.63636 2.66667 7.35145 2.66667 7ZM0 11.4545C0 10.7516 0.596954 10.1818 1.33333 10.1818H2.66667C3.40305 10.1818 4 10.7516 4 11.4545V12.7273C4 13.4302 3.40305 14 2.66667 14H1.33333C0.596954 14 0 13.4302 0 12.7273V11.4545ZM2.66667 12.0909C2.66667 11.7395 2.38176 11.4545 2.0303 11.4545H1.9697C1.61824 11.4545 1.33333 11.7395 1.33333 12.0909C1.33333 12.4424 1.61824 12.7273 1.9697 12.7273H2.0303C2.38176 12.7273 2.66667 12.4424 2.66667 12.0909Z" fill="#A0ABB5"/>
</svg>
