<svg width="18" height="19" viewBox="0 0 18 19" fill="none" xmlns="http://www.w3.org/2000/svg">
<path fill-rule="evenodd" clip-rule="evenodd" d="M4.99504 3.24883L6.59127 1.24721C6.73359 1.06877 6.94941 0.964844 7.17765 0.964844H10.8223C11.0505 0.964844 11.2664 1.06877 11.4086 1.24724L13.0049 3.24883H16.5C16.9142 3.24883 17.25 3.58461 17.25 3.99883C17.25 4.41304 16.9142 4.74883 16.5 4.74883H15.8251L14.5088 17.3853C14.4133 18.3023 13.6404 18.9988 12.7185 18.9988H5.2815C4.35958 18.9988 3.58671 18.3023 3.49118 17.3853L2.17488 4.74883H1.5C1.08579 4.74883 0.75 4.41304 0.75 3.99883C0.75 3.58461 1.08579 3.24883 1.5 3.24883H4.99504ZM11.086 3.24848L10.4611 2.46485H7.53883L6.91391 3.24848H11.086Z" fill="#A0ABB5"/>
</svg>
