<svg width="24" height="24" viewBox="0 0 24 24" fill="none" xmlns="http://www.w3.org/2000/svg">
<path d="M15.3302 6.55317C14.272 6.19098 13.1498 6 12.0048 6C8.87909 6 5.92346 7.42335 3.9746 9.86715C3.46535 10.5057 3.03932 11.1958 2.7002 11.9213C3.03926 12.6466 3.46523 13.3365 3.97436 13.9749C4.56173 14.7115 5.24054 15.3553 5.98793 15.8954L8.35079 13.5326C8.24897 13.3018 8.16845 13.0599 8.11132 12.8097C7.8409 11.6248 8.12473 10.3813 8.88244 9.43116C9.64018 8.48097 10.7894 7.92756 12.0047 7.92756C12.5667 7.92756 13.1146 8.04591 13.6162 8.26716L15.3302 6.55317Z" fill="#A0ABB5"/>
<path d="M12.4204 9.46073C12.284 9.43763 12.1448 9.42578 12.0043 9.42578C11.2454 9.42578 10.5279 9.77132 10.0548 10.3646C9.61112 10.9209 9.42767 11.6383 9.54572 12.3354L12.4204 9.46073Z" fill="#A0ABB5"/>
<path d="M11.7266 14.4002L14.4822 11.6445C14.5131 11.9195 14.4983 12.2009 14.4352 12.4771C14.2664 13.2169 13.7698 13.8396 13.0862 14.1688C12.6587 14.3747 12.1871 14.4518 11.7266 14.4002Z" fill="#A0ABB5"/>
<path d="M10.5036 15.6203C11.5438 16.0422 12.7184 16.0079 13.7369 15.5174C14.8318 14.9901 15.6271 13.9929 15.8975 12.8081C16.0815 12.0019 16.0089 11.1685 15.705 10.4189L18.1121 8.01172C18.8236 8.53789 19.4711 9.15907 20.0345 9.86554C20.5436 10.504 20.9696 11.1939 21.3086 11.9192C20.9695 12.6446 20.5435 13.3347 20.0342 13.9733C18.0854 16.4171 15.1298 17.8405 12.004 17.8405C10.9016 17.8405 9.8203 17.6634 8.79688 17.327L10.5036 15.6203Z" fill="#A0ABB5"/>
<path fill-rule="evenodd" clip-rule="evenodd" d="M20.9343 4.27045C21.2271 4.56334 21.2271 5.03824 20.9343 5.33113L6.53425 19.7311C6.24133 20.024 5.76646 20.024 5.47357 19.7311C5.18068 19.4382 5.18068 18.9633 5.47357 18.6705L19.8736 4.27045C20.1665 3.97756 20.6413 3.97756 20.9343 4.27045Z" fill="#A0ABB5"/>
</svg>
