<svg width="24" height="24" viewBox="0 0 24 24" fill="none" xmlns="http://www.w3.org/2000/svg">
<path d="M10.9233 14.1658C11.607 14.4951 12.4034 14.4951 13.0871 14.1658C13.7708 13.8366 14.2673 13.2139 14.4362 12.4741C14.6051 11.7343 14.4278 10.9579 13.9547 10.3646C13.4816 9.77132 12.764 9.42578 12.0052 9.42578C11.2464 9.42578 10.5289 9.77132 10.0557 10.3646C9.58261 10.9579 9.4054 11.7343 9.57427 12.4741C9.74311 13.2139 10.2397 13.8366 10.9233 14.1658Z" fill="#A0ABB5"/>
<path fill-rule="evenodd" clip-rule="evenodd" d="M20.0338 13.9749C20.5431 13.3363 20.9691 12.6462 21.3082 11.9208C20.9691 11.1955 20.5432 10.5056 20.0341 9.86715C18.0852 7.42335 15.1296 6 12.0038 6C8.87811 6 5.92248 7.42335 3.97362 9.86715C3.46437 10.5057 3.03834 11.1958 2.69922 11.9213C3.03828 12.6466 3.46425 13.3365 3.97338 13.9749C5.92224 16.4187 8.87787 17.8421 12.0036 17.8421C15.1293 17.8421 18.085 16.4187 20.0338 13.9749ZM13.7364 15.5191C12.6415 16.0464 11.366 16.0464 10.271 15.5191C9.17604 14.9917 8.3808 13.9945 8.11035 12.8097C7.83993 11.6248 8.12376 10.3813 8.88147 9.43116C9.63921 8.48097 10.7884 7.92756 12.0037 7.92756C13.219 7.92756 14.3682 8.48097 15.1259 9.43116C15.8837 10.3813 16.1675 11.6248 15.8971 12.8097C15.6266 13.9945 14.8314 14.9917 13.7364 15.5191Z" fill="#A0ABB5"/>
</svg>
