<svg width="32" height="32" viewBox="0 0 32 32" fill="none" xmlns="http://www.w3.org/2000/svg">
<path fill-rule="evenodd" clip-rule="evenodd" d="M32 16C32 7.16412 24.8359 0 16 0C7.16412 0 0 7.16412 0 16C0 23.9854 5.85015 30.6049 13.5002 31.8066V20.6261H9.43664V16H13.5002V12.4742C13.5002 8.46457 15.8898 6.24828 19.5438 6.24828C21.2943 6.24828 23.1259 6.56102 23.1259 6.56102V10.4986H21.1075C19.1208 10.4986 18.4998 11.7317 18.4998 12.9984V15.9999H22.9368L22.228 20.626H18.4996V31.8065C26.1497 30.607 31.9999 23.9874 31.9999 15.9999L32 16Z" fill="#A0ABB5"/>
</svg>
