<svg width="18" height="19" viewBox="0 0 18 19" fill="none" xmlns="http://www.w3.org/2000/svg">
<path fill-rule="evenodd" clip-rule="evenodd" d="M18 9.34008C18 14.3324 13.9706 18.3794 9 18.3794C4.02943 18.3794 0 14.3324 0 9.34008C0 4.34781 4.02943 0.300781 9 0.300781C13.9706 0.300781 18 4.34781 18 9.34008ZM8.98965 3.36769C9.43345 3.36769 9.79322 3.72903 9.79322 4.17477V11.4062C9.79322 11.8519 9.43345 12.2133 8.98965 12.2133C8.54585 12.2133 8.18608 11.8519 8.18608 11.4062V4.17477C8.18608 3.72903 8.54585 3.36769 8.98965 3.36769ZM9.79322 13.7306C9.79322 13.2848 9.43345 12.9235 8.98965 12.9235C8.54585 12.9235 8.18608 13.2848 8.18608 13.7306V14.2471C8.18608 14.6928 8.54585 15.0542 8.98965 15.0542C9.43345 15.0542 9.79322 14.6928 9.79322 14.2471V13.7306Z" fill="#D20202"/>
</svg>
