<svg width="18" height="18" viewBox="0 0 18 18" fill="none" xmlns="http://www.w3.org/2000/svg">
<path d="M9 1.04526C9 0.467977 8.53045 -0.00626983 7.95706 0.0606266C6.54622 0.225223 5.18911 0.722149 3.99987 1.51677C2.51982 2.50571 1.36627 3.91131 0.685084 5.55585C0.00389503 7.20038 -0.174335 9.00998 0.172932 10.7558C0.520199 12.5016 1.37737 14.1053 2.63604 15.364C3.89471 16.6226 5.49836 17.4798 7.24419 17.8271C8.99002 18.1743 10.7996 17.9961 12.4442 17.3149C14.0887 16.6337 15.4943 15.4802 16.4832 14.0001C17.2779 12.8109 17.7748 11.4538 17.9394 10.0429C18.0063 9.46955 17.532 9 16.9547 9C16.3775 9 15.9176 9.47061 15.8306 10.0413C15.6786 11.0379 15.3098 11.9935 14.745 12.8387C13.9858 13.975 12.9067 14.8606 11.6441 15.3835C10.3816 15.9065 8.99234 16.0433 7.65203 15.7767C6.31172 15.5101 5.08056 14.8521 4.11426 13.8857C3.14795 12.9194 2.48988 11.6883 2.22328 10.348C1.95667 9.00766 2.0935 7.6184 2.61647 6.35585C3.13943 5.09331 4.02504 4.0142 5.16129 3.25497C6.00649 2.69023 6.96214 2.32135 7.9587 2.16942C8.52939 2.08242 9 1.62254 9 1.04526Z" fill="#A0ABB5"/>
</svg>
