<svg width="256" height="228" viewBox="0 0 256 228" fill="none" xmlns="http://www.w3.org/2000/svg">
<path d="M168.789 77.7461L252.863 95.8521L241.683 148.285C241.191 150.593 239.807 152.61 237.835 153.892C235.864 155.174 233.466 155.617 231.17 155.122L164.412 140.745C162.116 140.251 160.109 138.86 158.833 136.878C157.558 134.897 157.117 132.487 157.609 130.179L168.789 77.7461Z" fill="white"/>
<path d="M233.7 146.313L243.707 98.7109L232.054 96.2365L222.046 143.839L233.7 146.313Z" stroke="#FF7D40" stroke-width="2" stroke-miterlimit="10"/>
<path d="M243.709 98.7473L175.158 84.1914L165.151 131.794L233.702 146.35L243.709 98.7473Z" stroke="#FF7D40" stroke-width="2" stroke-miterlimit="10"/>
<path d="M243.711 98.7473L175.16 84.1914L172.698 95.903L241.249 110.459L243.711 98.7473Z" stroke="#FF7D40" stroke-width="2" stroke-miterlimit="10"/>
<path d="M238.695 122.599L170.145 108.043L167.682 119.755L236.233 134.31L238.695 122.599Z" stroke="#FF7D40" stroke-width="2" stroke-miterlimit="10"/>
<path d="M211.063 141.52L221.07 93.918L209.417 91.4435L199.41 139.046L211.063 141.52Z" stroke="#FF7D40" stroke-width="2" stroke-miterlimit="10"/>
<path d="M187.365 136.614L197.531 88.9336L185.859 86.4199L175.693 134.1L187.365 136.614Z" stroke="#FF7D40" stroke-width="2.00449" stroke-miterlimit="10"/>
<path d="M176.727 62.6583L251.374 78.5087C251.981 78.6377 252.558 78.8857 253.07 79.2386C253.582 79.5915 254.02 80.0423 254.359 80.5654C254.698 81.0884 254.931 81.6734 255.045 82.2869C255.159 82.9005 255.151 83.5306 255.023 84.1412L252.795 94.7394L168.894 76.9241L171.118 66.3437C171.245 65.7311 171.49 65.1495 171.841 64.6324C172.191 64.1154 172.64 63.6729 173.161 63.3305C173.682 62.9881 174.265 62.7524 174.877 62.6371C175.489 62.5217 176.117 62.5289 176.727 62.6583Z" fill="#FF7D40"/>
<path d="M243.292 85.8914C244.944 85.8914 246.283 84.5454 246.283 82.8851C246.283 81.2248 244.944 79.8789 243.292 79.8789C241.64 79.8789 240.301 81.2248 240.301 82.8851C240.301 84.5454 241.64 85.8914 243.292 85.8914Z" fill="#EA3601"/>
<path d="M243.197 83.3666C243.011 83.3283 242.835 83.2533 242.678 83.1461C242.522 83.0389 242.388 82.9016 242.284 82.742C242.18 82.5824 242.109 82.4038 242.075 82.2165C242.04 82.0291 242.043 81.8368 242.083 81.6505L243.506 74.8774C243.545 74.6912 243.62 74.5145 243.727 74.3574C243.834 74.2003 243.97 74.0659 244.129 73.9619C244.287 73.8579 244.465 73.7864 244.651 73.7513C244.837 73.7163 245.028 73.7184 245.213 73.7577C245.588 73.838 245.916 74.0645 246.125 74.3873C246.334 74.7101 246.407 75.1031 246.328 75.4799L244.905 82.2469C244.866 82.4335 244.792 82.6107 244.685 82.7682C244.579 82.9257 244.442 83.0604 244.283 83.1645C244.124 83.2686 243.947 83.3401 243.76 83.3748C243.574 83.4095 243.382 83.4067 243.197 83.3666Z" fill="white"/>
<path d="M182.2 72.8696C183.849 72.7747 185.109 71.3539 185.015 69.6963C184.92 68.0388 183.507 66.7721 181.857 66.8671C180.208 66.9621 178.948 68.3828 179.042 70.0404C179.137 71.6979 180.55 72.9646 182.2 72.8696Z" fill="#EA3601"/>
<path d="M181.924 70.3628C181.739 70.3237 181.563 70.2483 181.407 70.1409C181.251 70.0335 181.117 69.8961 181.013 69.7368C180.91 69.5774 180.839 69.3991 180.804 69.2121C180.769 69.025 180.771 68.8329 180.81 68.6467L182.233 61.8735C182.272 61.6873 182.347 61.5106 182.454 61.3535C182.561 61.1964 182.698 61.062 182.856 60.958C183.015 60.854 183.192 60.7825 183.378 60.7474C183.564 60.7124 183.755 60.7145 183.941 60.7538C184.126 60.7921 184.303 60.8671 184.459 60.9743C184.616 61.0815 184.75 61.2188 184.854 61.3784C184.957 61.538 185.029 61.7166 185.063 61.9039C185.098 62.0913 185.095 62.2836 185.055 62.4699L183.626 69.2431C183.547 69.6179 183.324 69.9462 183.005 70.156C182.686 70.3659 182.298 70.4402 181.924 70.3628Z" fill="white"/>
<path d="M200.501 73.7999C200.379 74.3817 200.089 74.9143 199.666 75.3302C199.243 75.7461 198.707 76.0267 198.126 76.1365C197.544 76.2463 196.943 76.1804 196.399 75.947C195.855 75.7137 195.392 75.3234 195.069 74.8256C194.745 74.3278 194.576 73.7448 194.582 73.1503C194.588 72.5557 194.77 71.9764 195.104 71.4856C195.438 70.9948 195.909 70.6144 196.458 70.3927C197.007 70.1709 197.609 70.1178 198.188 70.2399C198.963 70.4051 199.642 70.8725 200.076 71.5397C200.509 72.207 200.662 73.0196 200.501 73.7999Z" fill="#EA3601"/>
<path d="M197.474 73.6657C197.289 73.6267 197.112 73.551 196.955 73.4432C196.799 73.3354 196.665 73.1975 196.561 73.0375C196.458 72.8774 196.386 72.6984 196.352 72.5106C196.318 72.3229 196.32 72.1302 196.36 71.9435L197.783 65.1704C197.822 64.9841 197.897 64.8074 198.004 64.6503C198.111 64.4933 198.248 64.3589 198.406 64.2549C198.565 64.1509 198.742 64.0793 198.928 64.0443C199.114 64.0093 199.306 64.0114 199.491 64.0507C199.866 64.131 200.193 64.3574 200.402 64.6803C200.611 65.0031 200.684 65.396 200.605 65.7728L199.182 72.546C199.102 72.9213 198.878 73.2496 198.558 73.4594C198.238 73.6691 197.849 73.7433 197.474 73.6657Z" fill="white"/>
<path d="M228.872 82.615C230.484 82.2531 231.499 80.6461 231.139 79.0257C230.779 77.4054 229.18 76.3852 227.568 76.7471C225.955 77.109 224.94 78.7159 225.3 80.3363C225.661 81.9567 227.259 82.9769 228.872 82.615Z" fill="#EA3601"/>
<path d="M228.112 80.1675C227.927 80.1284 227.751 80.053 227.594 79.9456C227.438 79.8382 227.304 79.7009 227.201 79.5415C227.098 79.3821 227.026 79.2038 226.991 79.0168C226.957 78.8298 226.959 78.6376 226.998 78.4514L228.433 71.6783C228.513 71.3017 228.738 70.9723 229.059 70.7624C229.381 70.5525 229.772 70.4792 230.146 70.5586C230.521 70.6389 230.849 70.8653 231.058 71.1882C231.267 71.511 231.34 71.904 231.261 72.2808L229.832 79.0478C229.794 79.2357 229.719 79.4141 229.611 79.5725C229.504 79.7309 229.366 79.8662 229.206 79.9705C229.046 80.0748 228.866 80.1459 228.679 80.1797C228.491 80.2136 228.298 80.2094 228.112 80.1675Z" fill="white"/>
<path d="M224.068 125.788C223.928 126.456 223.594 127.067 223.108 127.544C222.622 128.02 222.007 128.342 221.339 128.467C220.672 128.593 219.983 128.516 219.358 128.248C218.734 127.979 218.203 127.531 217.832 126.96C217.462 126.388 217.268 125.719 217.276 125.036C217.283 124.354 217.492 123.689 217.876 123.126C218.259 122.563 218.8 122.127 219.43 121.873C220.06 121.619 220.751 121.558 221.416 121.699C221.857 121.792 222.276 121.972 222.648 122.228C223.02 122.484 223.339 122.812 223.585 123.191C223.831 123.571 224.001 123.996 224.084 124.442C224.166 124.887 224.161 125.345 224.068 125.788Z" stroke="#7CCDD6" stroke-miterlimit="10"/>
<path d="M217.039 99.0735C216.898 99.7412 216.564 100.352 216.079 100.829C215.593 101.306 214.977 101.627 214.31 101.752C213.643 101.878 212.953 101.801 212.329 101.533C211.705 101.265 211.174 100.816 210.803 100.245C210.432 99.6731 210.239 99.0038 210.246 98.3215C210.254 97.6392 210.463 96.9745 210.846 96.4115C211.23 95.8485 211.771 95.4123 212.401 95.1583C213.031 94.9042 213.722 94.8436 214.386 94.9841C214.828 95.0775 215.247 95.2573 215.619 95.5134C215.991 95.7695 216.309 96.0968 216.556 96.4765C216.802 96.8563 216.971 97.2811 217.054 97.7267C217.137 98.1723 217.132 98.63 217.039 99.0735Z" fill="#549FAA"/>
<path d="M194.634 94.7025C194.494 95.3701 194.16 95.9809 193.674 96.4577C193.189 96.9346 192.573 97.256 191.906 97.3813C191.238 97.5067 190.549 97.4303 189.925 97.162C189.301 96.8936 188.77 96.4453 188.399 95.8736C188.028 95.302 187.834 94.6327 187.842 93.9504C187.85 93.2682 188.059 92.6035 188.442 92.0404C188.826 91.4774 189.367 91.0413 189.997 90.7872C190.627 90.5331 191.318 90.4725 191.982 90.613C192.872 90.8045 193.65 91.342 194.147 92.1082C194.644 92.8744 194.819 93.807 194.634 94.7025V94.7025Z" stroke="#7CCDD6" stroke-miterlimit="10"/>
<path d="M195.3 61.891L192.037 63.6132L171.946 57.6738L170.129 54.5154C166.44 48.0248 164.093 40.852 163.229 33.4274C162.365 26.0029 163.003 18.4795 165.103 11.3086L222.785 28.3479C220.69 35.5125 217.176 42.1774 212.453 47.9418C207.73 53.7062 201.895 58.4511 195.3 61.891Z" fill="white"/>
<path d="M168.748 59.3541L172.012 57.6562L192.103 63.6139L193.919 66.7784C197.609 73.2689 199.956 80.4417 200.82 87.8663C201.684 95.2909 201.046 102.814 198.945 109.985L141.264 92.9459C143.352 85.7724 146.864 79.0981 151.587 73.325C156.311 67.5519 162.148 62.7995 168.748 59.3541Z" fill="white"/>
<path opacity="0.4" d="M222.801 28.3557L165.12 11.3164C163.019 18.4873 162.382 26.0107 163.246 33.4353C164.109 40.8598 166.456 48.0326 170.146 54.5233L171.962 57.6816H172.029L168.747 59.3551C162.147 62.7932 156.307 67.5378 151.58 73.3035C146.852 79.0691 143.335 85.7365 141.238 92.9043L198.92 109.944C201.02 102.773 201.658 95.2494 200.795 87.8247C199.931 80.4001 197.584 73.2273 193.894 66.7368L192.077 63.5723H192.011L195.275 61.8745C201.875 58.4418 207.716 53.7027 212.446 47.9424C217.177 42.1821 220.699 35.5196 222.801 28.3557Z" fill="#FF7D40"/>
<path opacity="0.62" d="M219.387 27.3456L168.869 12.418C164.63 26.8953 165.714 42.2733 171.897 55.0162L173.38 58.059H173.441L170.492 59.8481C158.454 67.1507 149.25 79.5042 145.012 93.9815L195.53 108.915C199.769 94.4318 198.679 79.0539 192.502 66.317L191.019 63.2742H190.958L193.901 61.4851C205.945 54.1521 215.149 41.823 219.387 27.3456Z" fill="white"/>
<path d="M184.928 61.4919L179.121 59.7758C177.521 57.6583 176.202 55.3405 175.197 52.8809C170.959 42.4748 168.022 29.8779 171.31 18.6562L213.648 31.1741C210.36 42.4078 200.605 51.2561 191.328 57.6702C189.277 59.0779 187.139 60.3543 184.928 61.4919Z" fill="#EA3601"/>
<path opacity="0.5" d="M176.033 20.0547L213.647 31.1728C210.753 41.0496 201.452 49.9465 193.744 55.9955C184.564 63.1946 169.699 37.5565 176.033 20.0547Z" fill="#FF7D40"/>
<path d="M192.659 24.9727L213.646 31.1737C212.029 36.6507 209.002 42.5475 204.702 45.9188C199.586 49.9352 189.141 34.7337 192.659 24.9727Z" fill="#FF7D40"/>
<path d="M184.92 61.4984L179.111 59.7812L170.126 90.4842L175.935 92.2014L184.92 61.4984Z" fill="#EA3601"/>
<path d="M188.469 96.9867L177.297 85.9538L171.902 84.3594L156.734 87.7855C154.89 88.2023 153.191 89.1071 151.812 90.4061C150.433 91.705 149.425 93.351 148.893 95.1733L191.23 107.685C191.777 105.818 191.809 103.836 191.323 101.952C190.837 100.068 189.85 98.3515 188.469 96.9867Z" fill="#EA3601"/>
<path d="M227.379 29.7057L160.542 9.95222C160.345 9.89424 160.161 9.79766 160 9.66801C159.84 9.53836 159.707 9.37819 159.609 9.19669C159.51 9.01519 159.448 8.81594 159.427 8.61037C159.405 8.4048 159.424 8.19697 159.482 7.99878L161.493 1.12828C161.611 0.728464 161.881 0.391897 162.246 0.192292C162.61 -0.00731335 163.038 -0.053688 163.436 0.0633252L230.249 19.7985C230.447 19.8558 230.632 19.952 230.793 20.0813C230.954 20.2107 231.087 20.3708 231.186 20.5524C231.285 20.7339 231.348 20.9334 231.37 21.1393C231.392 21.3451 231.373 21.5534 231.315 21.7519L229.304 28.6224C229.192 29.0224 228.926 29.3611 228.565 29.5642C228.204 29.7672 227.777 29.8181 227.379 29.7057Z" fill="#549FAA"/>
<path opacity="0.41" d="M227.379 29.7089L160.542 9.95541C160.345 9.89744 160.161 9.80086 160 9.67121C159.84 9.54155 159.707 9.38139 159.609 9.19989C159.51 9.01839 159.448 8.81914 159.427 8.61357C159.405 8.408 159.424 8.20016 159.482 8.00198L160.046 6.07897C160.103 5.88055 160.199 5.69553 160.328 5.53453C160.457 5.37352 160.617 5.23971 160.797 5.14077C160.978 5.04182 161.176 4.97969 161.381 4.95794C161.585 4.93618 161.792 4.95524 161.989 5.01401L228.826 24.7675C229.024 24.8248 229.209 24.9209 229.37 25.0503C229.531 25.1797 229.664 25.3397 229.763 25.5213C229.863 25.7029 229.925 25.9023 229.947 26.1082C229.969 26.3141 229.95 26.5223 229.892 26.7209L229.329 28.6439C229.271 28.843 229.175 29.0286 229.045 29.1901C228.916 29.3516 228.756 29.4857 228.575 29.5848C228.393 29.6838 228.194 29.7457 227.989 29.767C227.784 29.7883 227.577 29.7685 227.379 29.7089Z" fill="#508697"/>
<path d="M133.335 101.848L200.219 121.453C201.051 121.697 201.921 121.217 202.164 120.381L204.158 113.511C204.4 112.676 203.923 111.8 203.091 111.557L136.207 91.9513C135.376 91.7076 134.505 92.1874 134.263 93.0231L132.269 99.8933C132.026 100.729 132.504 101.604 133.335 101.848Z" fill="#549FAA"/>
<path opacity="0.41" d="M134.779 96.9025L201.662 116.508C202.494 116.752 203.365 116.272 203.607 115.436L204.165 113.514C204.407 112.678 203.93 111.803 203.098 111.56L136.215 91.9542C135.383 91.7105 134.512 92.1904 134.27 93.026L133.712 94.9481C133.47 95.7837 133.947 96.6587 134.779 96.9025Z" fill="#508697"/>
<path d="M115.82 157.598L115.384 157.701L85.1691 165.186L84.7271 165.296L83.0801 189.625L84.3214 189.321L127.289 178.678L128.53 178.373L115.82 157.598Z" fill="#508697"/>
<path opacity="0.35" d="M117.062 159.625L84.5696 167.67L83.9883 176.22L121.53 166.928L121.627 166.903L117.062 159.625Z" fill="#549FAA"/>
<path d="M169.752 136.638L27.2927 171.934C26.004 172.252 24.6424 172.043 23.5071 171.352C22.3718 170.662 21.5555 169.547 21.2375 168.252L0.649968 84.2727C0.332753 82.9818 0.536803 81.6171 1.21754 80.4769C1.89828 79.3366 3.00038 78.5135 4.28306 78.1873L146.743 42.8915C148.028 42.5694 149.387 42.773 150.522 43.4577C151.658 44.1423 152.476 45.252 152.798 46.5428L173.386 130.522C173.549 131.164 173.584 131.831 173.49 132.486C173.395 133.142 173.173 133.771 172.835 134.34C172.497 134.908 172.051 135.404 171.522 135.798C170.993 136.193 170.392 136.478 169.752 136.638Z" fill="#508697"/>
<path d="M164.485 127.09L27.5351 160.98C27.2582 161.047 26.9664 161.001 26.7228 160.853C26.4792 160.705 26.3034 160.467 26.2332 160.189L7.86789 85.2893C7.83362 85.1518 7.82683 85.0089 7.84794 84.8687C7.86904 84.7286 7.91761 84.5941 7.99083 84.4729C8.06405 84.3518 8.16046 84.2465 8.27448 84.1631C8.3885 84.0796 8.51786 84.0198 8.65506 83.987L145.605 50.0727C145.882 50.0063 146.173 50.0521 146.417 50.2001C146.66 50.3481 146.836 50.5865 146.906 50.8638L165.272 125.788C165.306 125.926 165.313 126.069 165.292 126.209C165.271 126.349 165.222 126.483 165.149 126.604C165.076 126.726 164.979 126.831 164.865 126.914C164.751 126.998 164.622 127.058 164.485 127.09Z" fill="white"/>
<path d="M139.32 179.787L74.1789 195.914C73.9663 195.047 73.9257 194.146 74.0596 193.263C74.1935 192.38 74.4992 191.533 74.9592 190.769C75.4191 190.005 76.0244 189.339 76.7404 188.81C77.4564 188.281 78.2691 187.899 79.132 187.686L131.134 174.809C132.876 174.38 134.717 174.662 136.252 175.596C137.787 176.529 138.891 178.037 139.32 179.787Z" fill="#549FAA"/>
<path d="M145.61 50.0776L8.65002 83.9884C8.07529 84.1307 7.72416 84.7143 7.86575 85.292L9.28525 91.0826C9.42684 91.6602 10.0075 92.0131 10.5823 91.8708L147.542 57.9599C148.117 57.8176 148.468 57.234 148.326 56.6564L146.907 50.8658C146.765 50.2881 146.185 49.9353 145.61 50.0776Z" fill="#7CCDD6"/>
<path d="M132.55 57.21C132.604 57.4286 132.592 57.6583 132.515 57.8699C132.439 58.0816 132.302 58.2657 132.121 58.3989C131.94 58.5322 131.725 58.6086 131.501 58.6186C131.277 58.6286 131.055 58.5716 130.864 58.4549C130.672 58.3382 130.519 58.167 130.425 57.963C130.33 57.7589 130.297 57.5313 130.332 57.3088C130.366 57.0862 130.465 56.8789 130.616 56.7129C130.767 56.5469 130.964 56.4298 131.182 56.3763C131.473 56.3047 131.781 56.3523 132.038 56.5086C132.294 56.6649 132.479 56.9172 132.55 57.21V57.21Z" stroke="white" stroke-miterlimit="10"/>
<path d="M144.266 54.3021C144.32 54.5204 144.309 54.7499 144.234 54.9618C144.158 55.1736 144.022 55.3582 143.842 55.4922C143.662 55.6262 143.447 55.7037 143.223 55.7147C142.999 55.7258 142.778 55.6699 142.586 55.5543C142.393 55.4387 142.24 55.2684 142.144 55.065C142.048 54.8616 142.015 54.6343 142.047 54.4117C142.08 54.1891 142.178 53.9813 142.328 53.8144C142.478 53.6476 142.674 53.5293 142.891 53.4745C143.183 53.4025 143.491 53.4491 143.748 53.6041C144.006 53.7591 144.192 54.0099 144.266 54.3021Z" stroke="white" stroke-miterlimit="10"/>
<path d="M138.412 55.7595C138.465 55.9782 138.453 56.2078 138.376 56.4195C138.3 56.6311 138.163 56.8152 137.982 56.9485C137.802 57.0817 137.586 57.1582 137.362 57.1681C137.138 57.1781 136.917 57.1211 136.725 57.0044C136.533 56.8877 136.381 56.7165 136.286 56.5125C136.191 56.3085 136.159 56.0808 136.193 55.8583C136.227 55.6358 136.326 55.4284 136.477 55.2624C136.629 55.0964 136.826 54.9793 137.043 54.9258C137.334 54.8559 137.642 54.9042 137.898 55.0603C138.154 55.2163 138.339 55.4676 138.412 55.7595V55.7595Z" stroke="white" stroke-miterlimit="10"/>
<path d="M172.382 145.927L29.2498 181.362C26.7551 181.971 24.0545 179.731 23.1946 176.336L19.2891 160.404L171.516 122.723L175.421 138.654C176.227 142.05 174.876 145.306 172.382 145.927Z" fill="#549FAA"/>
<path d="M103.321 150.772C103.581 151.833 103.522 152.947 103.152 153.975C102.783 155.002 102.118 155.896 101.243 156.544C100.367 157.192 99.3202 157.564 98.2342 157.614C97.1482 157.664 96.0719 157.39 95.1411 156.825C94.2104 156.261 93.4672 155.431 93.0053 154.442C92.5434 153.453 92.3836 152.349 92.5462 151.268C92.7088 150.188 93.1863 149.181 93.9186 148.373C94.6508 147.565 95.6048 146.994 96.66 146.731C98.0764 146.38 99.5735 146.609 100.822 147.366C102.071 148.124 102.97 149.349 103.321 150.772Z" stroke="white" stroke-miterlimit="10"/>
<path d="M60.8696 142.177L59.2771 140.862C60.0234 139.524 60.4737 138.04 60.5971 136.511L62.6438 136.31C63.1432 136.262 63.6031 136.016 63.9221 135.627C64.2412 135.238 64.3934 134.737 64.3453 134.235C64.2971 133.733 64.0525 133.271 63.6652 132.95C63.278 132.63 62.7799 132.477 62.2805 132.525L60.2278 132.732C59.8153 131.256 59.088 129.887 58.0963 128.722L59.4103 127.121C59.7285 126.731 59.8797 126.23 59.8309 125.728C59.7821 125.226 59.5372 124.764 59.1499 124.444V124.444C58.7612 124.126 58.2632 123.974 57.7642 124.023C57.2652 124.072 56.8057 124.318 56.4857 124.705L55.1777 126.294C53.8496 125.542 52.374 125.091 50.8544 124.973L50.6545 122.91C50.6064 122.408 50.3618 121.946 49.9745 121.625C49.5873 121.305 49.0892 121.152 48.5897 121.2C48.0903 121.249 47.6304 121.494 47.3113 121.884C46.9923 122.273 46.8401 122.773 46.8882 123.275L47.0881 125.338C45.6195 125.754 44.2581 126.485 43.0977 127.48L41.5052 126.166C41.3142 126.007 41.0938 125.887 40.8567 125.814C40.6195 125.74 40.3702 125.715 40.1232 125.738C39.8762 125.762 39.6363 125.835 39.4172 125.952C39.1982 126.069 39.0044 126.229 38.847 126.422V126.422C38.6887 126.614 38.5698 126.837 38.4972 127.076C38.4246 127.315 38.3997 127.566 38.4238 127.815C38.448 128.063 38.5209 128.305 38.6382 128.525C38.7555 128.746 38.9149 128.941 39.1073 129.099L40.6999 130.414C39.9519 131.751 39.5016 133.235 39.3798 134.765L37.3271 134.966C37.0791 134.988 36.8381 135.061 36.6179 135.177C36.3977 135.294 36.2027 135.454 36.0441 135.647C35.8855 135.84 35.7664 136.062 35.6936 136.302C35.6209 136.541 35.596 136.793 35.6204 137.042C35.6447 137.291 35.7178 137.533 35.8355 137.753C35.9532 137.974 36.1131 138.169 36.306 138.327C36.499 138.485 36.7212 138.604 36.9598 138.675C37.1984 138.747 37.4488 138.771 37.6965 138.745L39.7492 138.544C40.1632 140.018 40.8881 141.386 41.8746 142.554L40.5666 144.155C40.25 144.545 40.0997 145.046 40.1485 145.547C40.1972 146.049 40.4411 146.511 40.827 146.832V146.832C41.2141 147.152 41.7116 147.303 42.21 147.254C42.7085 147.205 43.1672 146.959 43.4852 146.57L44.7992 144.97C46.1296 145.716 47.604 146.167 49.1226 146.291L49.3224 148.354C49.3714 148.855 49.6168 149.317 50.0046 149.637C50.3924 149.958 50.8908 150.11 51.3902 150.061C51.8897 150.011 52.3492 149.765 52.6677 149.375C52.9863 148.985 53.1377 148.484 53.0887 147.982L52.8889 145.919C54.3561 145.503 55.717 144.775 56.8792 143.783L58.4718 145.098C58.6631 145.257 58.8838 145.376 59.1212 145.449C59.3586 145.522 59.608 145.547 59.855 145.523C60.102 145.498 60.3419 145.425 60.5607 145.307C60.7795 145.189 60.973 145.029 61.13 144.836C61.4456 144.448 61.5954 143.951 61.5466 143.452C61.4978 142.954 61.2543 142.495 60.8696 142.177V142.177ZM45.0959 141.623C43.9196 140.651 43.0566 139.349 42.616 137.884C42.1754 136.419 42.177 134.855 42.6205 133.391C43.064 131.926 43.9296 130.627 45.1078 129.657C46.286 128.687 47.724 128.09 49.2398 127.941C50.7557 127.792 52.2815 128.098 53.6243 128.821C54.967 129.543 56.0665 130.65 56.7837 132C57.5009 133.35 57.8036 134.884 57.6536 136.408C57.5035 137.931 56.9074 139.375 55.9407 140.558C54.6426 142.144 52.7712 143.147 50.7376 143.346C48.7041 143.546 46.6749 142.926 45.0959 141.623V141.623Z" stroke="#7CCDD6" stroke-miterlimit="10"/>
<path d="M30.7139 129.885L31.0711 128.388C32.2037 128.453 33.3371 128.275 34.3954 127.864L35.1947 129.179C35.2909 129.338 35.4175 129.478 35.5673 129.588C35.717 129.699 35.887 129.779 36.0675 129.824C36.248 129.868 36.4354 129.877 36.6192 129.849C36.8029 129.82 36.9794 129.756 37.1384 129.659C37.2974 129.563 37.436 129.435 37.5461 129.285C37.6562 129.134 37.7357 128.964 37.7801 128.782C37.8246 128.601 37.833 128.412 37.805 128.228C37.7769 128.043 37.713 127.866 37.6168 127.706L36.8175 126.385C37.6668 125.63 38.3424 124.697 38.7975 123.653L40.2931 124.018C40.6552 124.104 41.0365 124.043 41.354 123.849C41.6715 123.654 41.8996 123.341 41.9886 122.978C42.0762 122.613 42.0165 122.228 41.8224 121.908C41.6283 121.587 41.3157 121.357 40.9531 121.268L39.4575 120.908C39.5287 119.77 39.3509 118.63 38.9368 117.568L40.2507 116.764C40.5719 116.568 40.8025 116.252 40.8916 115.885C40.9807 115.518 40.9212 115.131 40.7261 114.808C40.531 114.485 40.2162 114.253 39.8512 114.164C39.4861 114.074 39.1005 114.134 38.7793 114.33L37.4714 115.133C36.7178 114.282 35.7905 113.603 34.7527 113.143L35.116 111.646C35.2034 111.281 35.1429 110.895 34.9475 110.575C34.7522 110.254 34.4382 110.024 34.0745 109.936C33.7116 109.85 33.3296 109.912 33.0119 110.108C32.6942 110.304 32.4667 110.619 32.379 110.983L32.0218 112.48C30.889 112.409 29.7543 112.587 28.6975 113.003L27.8801 111.689C27.7839 111.529 27.6573 111.39 27.5075 111.279C27.3577 111.169 27.1878 111.089 27.0073 111.044C26.8268 110.999 26.6393 110.991 26.4556 111.019C26.2718 111.047 26.0954 111.112 25.9364 111.208C25.7773 111.305 25.6388 111.432 25.5287 111.583C25.4186 111.733 25.339 111.904 25.2946 112.085C25.2502 112.267 25.2418 112.455 25.2698 112.64C25.2978 112.825 25.3618 113.002 25.458 113.162L26.2573 114.476C25.408 115.232 24.7323 116.164 24.2772 117.209L22.7816 116.849C22.6023 116.805 22.416 116.797 22.2334 116.825C22.0509 116.854 21.8758 116.918 21.7182 117.015C21.5605 117.111 21.4235 117.239 21.3151 117.389C21.2066 117.539 21.1288 117.709 21.0862 117.89C20.9987 118.254 21.0586 118.638 21.2528 118.958C21.447 119.277 21.7595 119.506 22.1216 119.594L23.6172 119.959C23.5465 121.098 23.7242 122.238 24.138 123.3L22.824 124.103C22.665 124.2 22.5265 124.328 22.4166 124.479C22.3066 124.63 22.2273 124.801 22.1832 124.983C22.139 125.164 22.1309 125.353 22.1593 125.538C22.1877 125.723 22.2521 125.9 22.3487 126.06C22.4453 126.22 22.5723 126.359 22.7224 126.469C22.8725 126.58 23.0428 126.66 23.2236 126.704C23.4044 126.748 23.5921 126.756 23.776 126.728C23.9599 126.699 24.1364 126.635 24.2954 126.538L25.6033 125.734C26.3557 126.589 27.2832 127.27 28.3221 127.73L27.9588 129.227C27.8731 129.592 27.9346 129.976 28.1297 130.295C28.3249 130.615 28.6379 130.843 29.0003 130.931C29.1812 130.977 29.3695 130.987 29.5542 130.959C29.7388 130.931 29.9161 130.867 30.0756 130.769C30.2352 130.672 30.3738 130.543 30.4834 130.392C30.593 130.24 30.6713 130.067 30.7139 129.885ZM25.9666 119.089C26.2314 117.981 26.8172 116.976 27.65 116.203C28.4827 115.429 29.525 114.921 30.6451 114.743C31.7652 114.564 32.9128 114.724 33.9427 115.201C34.9726 115.678 35.8386 116.451 36.4313 117.423C37.0239 118.394 37.3166 119.521 37.2722 120.66C37.2279 121.799 36.8485 122.899 36.1821 123.821C35.5157 124.743 34.5922 125.446 33.5283 125.841C32.4645 126.235 31.308 126.304 30.2052 126.039C29.4724 125.863 28.7813 125.543 28.1715 125.099C27.5616 124.654 27.0451 124.093 26.6513 123.447C26.2576 122.802 25.9945 122.085 25.877 121.337C25.7595 120.589 25.79 119.825 25.9666 119.089Z" fill="#FF7D40"/>
<path d="M152.41 100.371C152.549 100.248 152.663 100.099 152.745 99.9325C152.826 99.7658 152.874 99.5845 152.886 99.3991C152.898 99.2136 152.873 99.0277 152.813 98.8518C152.754 98.676 152.66 98.5138 152.537 98.3745L151.526 97.2183C152.236 96.3241 152.744 95.2861 153.016 94.1755L154.548 94.2729C154.92 94.2971 155.287 94.1716 155.568 93.9239C155.848 93.6763 156.019 93.3268 156.043 92.9524C156.067 92.5779 155.943 92.2092 155.696 91.9273C155.45 91.6454 155.102 91.4735 154.729 91.4492L153.197 91.3519C153.07 90.2189 152.7 89.1269 152.114 88.1509L153.27 87.1346C153.549 86.8864 153.72 86.537 153.743 86.163C153.767 85.789 153.643 85.4207 153.397 85.1386V85.1386C153.275 84.9989 153.127 84.8847 152.961 84.8026C152.795 84.7205 152.615 84.6722 152.431 84.6603C152.246 84.6484 152.061 84.6733 151.886 84.7334C151.711 84.7936 151.55 84.8878 151.411 85.0108L150.261 86.0271C149.372 85.3122 148.339 84.8012 147.233 84.5301L147.336 82.9904C147.36 82.616 147.235 82.2473 146.989 81.9654C146.742 81.6835 146.395 81.5115 146.022 81.4873C145.649 81.4631 145.283 81.5886 145.002 81.8363C144.722 82.084 144.55 82.4334 144.526 82.8079L144.429 84.3475C143.301 84.4722 142.214 84.8441 141.244 85.4368L140.233 84.3049C140.112 84.1654 139.964 84.0513 139.799 83.9693C139.634 83.8873 139.454 83.839 139.27 83.8271C139.086 83.8152 138.901 83.84 138.727 83.9001C138.552 83.9602 138.391 84.0543 138.253 84.1771V84.1771C137.973 84.4245 137.802 84.7734 137.777 85.1475C137.752 85.5215 137.875 85.8903 138.12 86.1731L139.131 87.3294C138.424 88.224 137.918 89.2621 137.648 90.3721L136.116 90.2687C135.931 90.2567 135.746 90.2813 135.571 90.3412C135.396 90.4011 135.235 90.495 135.096 90.6176C134.957 90.7403 134.843 90.8892 134.762 91.0559C134.68 91.2226 134.632 91.4038 134.62 91.5892C134.608 91.7746 134.633 91.9606 134.692 92.1364C134.752 92.3123 134.845 92.4747 134.967 92.6143C135.089 92.7538 135.238 92.8679 135.403 92.9499C135.569 93.0319 135.75 93.0803 135.934 93.0923L137.46 93.1897C137.59 94.3222 137.959 95.4137 138.544 96.3906L137.393 97.4069C137.254 97.5294 137.141 97.6783 137.059 97.845C136.977 98.0117 136.929 98.193 136.917 98.3784C136.906 98.5638 136.93 98.7498 136.99 98.9256C137.05 99.1014 137.144 99.2636 137.266 99.4029V99.4029C137.387 99.5429 137.534 99.6575 137.7 99.74C137.865 99.8226 138.045 99.8715 138.229 99.8839C138.413 99.8963 138.597 99.8721 138.772 99.8125C138.947 99.753 139.108 99.6593 139.246 99.5368L140.403 98.5206C141.293 99.2315 142.326 99.7401 143.43 100.011L143.334 101.551C143.319 101.737 143.342 101.924 143.401 102.102C143.459 102.279 143.552 102.443 143.674 102.584C143.795 102.725 143.944 102.84 144.11 102.923C144.277 103.006 144.458 103.055 144.643 103.067C144.829 103.079 145.015 103.054 145.191 102.993C145.366 102.933 145.528 102.838 145.667 102.714C145.806 102.59 145.919 102.439 146 102.271C146.08 102.103 146.127 101.92 146.137 101.734L146.24 100.194C147.367 100.068 148.453 99.6982 149.425 99.1108L150.436 100.267C150.686 100.541 151.033 100.705 151.402 100.724C151.771 100.744 152.133 100.617 152.41 100.371ZM149.11 96.5915C148.259 97.3425 147.205 97.823 146.081 97.972C144.958 98.121 143.816 97.932 142.8 97.4288C141.784 96.9256 140.939 96.1308 140.372 95.145C139.805 94.1591 139.542 93.0265 139.616 91.8903C139.689 90.7541 140.096 89.6654 140.786 88.7618C141.475 87.8583 142.416 87.1804 143.488 86.814C144.561 86.4476 145.718 86.4092 146.812 86.7034C147.907 86.9977 148.89 87.6116 149.637 88.4674C150.638 89.6156 151.144 91.1158 151.045 92.6389C150.946 94.162 150.251 95.5835 149.11 96.5915Z" stroke="#FF7D40" stroke-miterlimit="10"/>
<path d="M130.408 127.695C130.636 127.792 130.882 127.843 131.13 127.845C131.378 127.847 131.624 127.8 131.854 127.706C132.084 127.612 132.294 127.473 132.47 127.298C132.647 127.123 132.788 126.915 132.884 126.685L133.69 124.774C135.177 125.114 136.72 125.127 138.213 124.811L138.988 126.727C139.079 126.962 139.216 127.175 139.39 127.356C139.564 127.537 139.771 127.681 140.001 127.78C140.231 127.879 140.478 127.932 140.729 127.934C140.979 127.937 141.227 127.889 141.459 127.794C141.69 127.7 141.901 127.56 142.079 127.382C142.256 127.205 142.397 126.994 142.493 126.762C142.588 126.53 142.637 126.281 142.636 126.029C142.635 125.778 142.585 125.529 142.488 125.297L141.713 123.38C143.001 122.57 144.1 121.488 144.934 120.21L146.835 121.019C147.298 121.214 147.818 121.216 148.282 121.025C148.747 120.835 149.117 120.467 149.312 120.003C149.506 119.539 149.509 119.017 149.32 118.55C149.132 118.084 148.767 117.711 148.307 117.514L146.405 116.711C146.742 115.216 146.753 113.665 146.436 112.165L148.349 111.386C148.814 111.196 149.185 110.829 149.38 110.364C149.576 109.9 149.579 109.376 149.391 108.909C149.202 108.442 148.836 108.069 148.374 107.873C147.912 107.677 147.391 107.673 146.926 107.863L145.013 108.648C144.199 107.351 143.117 106.247 141.84 105.41L142.639 103.499C142.736 103.269 142.787 103.023 142.788 102.773C142.79 102.524 142.743 102.277 142.65 102.045C142.556 101.814 142.419 101.604 142.244 101.426C142.07 101.249 141.863 101.107 141.634 101.01C141.405 100.913 141.16 100.862 140.912 100.86C140.663 100.858 140.417 100.906 140.187 101C139.957 101.093 139.748 101.232 139.571 101.407C139.395 101.582 139.254 101.791 139.157 102.02L138.352 103.931C136.866 103.593 135.325 103.582 133.835 103.901L133.054 101.954C132.861 101.494 132.495 101.129 132.036 100.937C131.577 100.746 131.062 100.745 130.602 100.933C130.141 101.121 129.773 101.483 129.577 101.942C129.381 102.401 129.373 102.919 129.554 103.384L130.329 105.307C129.039 106.124 127.94 107.212 127.108 108.495L125.212 107.692C124.984 107.595 124.738 107.544 124.49 107.542C124.242 107.54 123.996 107.588 123.766 107.681C123.536 107.775 123.326 107.914 123.15 108.089C122.973 108.264 122.832 108.472 122.736 108.702C122.638 108.932 122.587 109.179 122.585 109.428C122.582 109.678 122.629 109.926 122.723 110.157C122.816 110.388 122.954 110.599 123.129 110.776C123.304 110.954 123.512 111.095 123.741 111.191L125.636 111.995C125.312 113.492 125.312 115.043 125.636 116.54L123.68 117.319C123.45 117.413 123.241 117.552 123.064 117.727C122.887 117.902 122.746 118.111 122.649 118.341C122.553 118.571 122.502 118.818 122.5 119.068C122.498 119.317 122.545 119.565 122.639 119.796C122.732 120.027 122.87 120.238 123.045 120.416C123.219 120.594 123.427 120.735 123.655 120.832C123.884 120.93 124.13 120.981 124.378 120.982C124.627 120.984 124.873 120.937 125.103 120.843L127.011 120.064C127.826 121.36 128.911 122.465 130.19 123.301L129.384 125.206C129.192 125.673 129.191 126.197 129.383 126.664C129.575 127.13 129.944 127.501 130.408 127.695ZM133.023 121.476C131.62 120.88 130.425 119.879 129.587 118.6C128.75 117.322 128.309 115.822 128.32 114.291C128.33 112.76 128.792 111.267 129.647 110C130.503 108.733 131.712 107.75 133.123 107.174C134.535 106.598 136.084 106.455 137.576 106.764C139.068 107.073 140.435 107.82 141.505 108.91C142.575 109.999 143.299 111.383 143.586 112.887C143.873 114.39 143.71 115.946 143.117 117.356C142.322 119.247 140.811 120.743 138.919 121.515C137.026 122.288 134.906 122.273 133.023 121.476Z" fill="#7CCDD6"/>
<path d="M120.897 121.676C143.153 99.3085 143.153 63.0431 120.897 40.6752C98.6401 18.3074 62.5553 18.3074 40.2988 40.6752C18.0424 63.0431 18.0424 99.3085 40.2988 121.676C62.5553 144.044 98.6401 144.044 120.897 121.676Z" fill="#549FAA"/>
<path d="M80.5976 127.919C106.284 127.919 127.107 106.991 127.107 81.1761C127.107 55.3609 106.284 34.4336 80.5976 34.4336C54.911 34.4336 34.0879 55.3609 34.0879 81.1761C34.0879 106.991 54.911 127.919 80.5976 127.919Z" fill="white"/>
<path d="M71.9078 46.056C71.5843 46.135 71.2427 46.0821 70.9579 45.9087C70.6731 45.7354 70.4682 45.4558 70.388 45.131L68.965 39.3133C68.9251 39.1526 68.9172 38.9857 68.9415 38.822C68.9659 38.6582 69.0222 38.5009 69.1071 38.3591C69.192 38.2172 69.3039 38.0936 69.4364 37.9952C69.5689 37.8968 69.7194 37.8257 69.8793 37.7858C70.2029 37.7068 70.5444 37.7597 70.8292 37.9331C71.114 38.1064 71.3189 38.386 71.3992 38.7108L72.8282 44.5285C72.9068 44.8537 72.8542 45.1969 72.6817 45.4831C72.5092 45.7694 72.231 45.9753 71.9078 46.056Z" fill="#508697"/>
<path d="M91.3139 124.555C91.1541 124.596 90.9879 124.604 90.825 124.579C90.6621 124.554 90.5056 124.498 90.3644 124.413C90.2233 124.327 90.1003 124.215 90.0024 124.082C89.9045 123.948 89.8337 123.797 89.794 123.637L88.365 117.819C88.3253 117.658 88.3175 117.49 88.3423 117.326C88.3671 117.162 88.4239 117.005 88.5094 116.863C88.5949 116.721 88.7075 116.597 88.8407 116.499C88.9738 116.401 89.125 116.331 89.2854 116.291C89.4452 116.251 89.6114 116.243 89.7743 116.268C89.9372 116.292 90.0937 116.349 90.2349 116.434C90.376 116.52 90.4991 116.632 90.5969 116.765C90.6948 116.898 90.7656 117.05 90.8053 117.21L92.2282 123.028C92.2689 123.189 92.2775 123.356 92.2535 123.52C92.2295 123.684 92.1733 123.841 92.0883 123.984C92.0032 124.126 91.891 124.249 91.7581 124.347C91.6252 124.446 91.4742 124.516 91.3139 124.555Z" fill="#508697"/>
<path d="M115.536 72.4387C115.457 72.1135 115.51 71.7703 115.682 71.484C115.855 71.1978 116.133 70.9918 116.456 70.9112L122.245 69.4811C122.568 69.4021 122.91 69.455 123.195 69.6284C123.479 69.8017 123.684 70.0813 123.765 70.4061C123.843 70.7305 123.79 71.073 123.618 71.3582C123.445 71.6435 123.167 71.8482 122.844 71.9275L117.055 73.3515C116.734 73.4309 116.394 73.3796 116.109 73.2088C115.825 73.0379 115.618 72.7612 115.536 72.4387Z" fill="#508697"/>
<path d="M37.4302 91.9442C37.3515 91.619 37.4042 91.2758 37.5767 90.9896C37.7492 90.7033 38.0274 90.4974 38.3506 90.4167L44.1393 88.9867C44.2991 88.9466 44.4653 88.9386 44.6282 88.9631C44.7911 88.9876 44.9476 89.0441 45.0887 89.1295C45.2299 89.2148 45.3529 89.3273 45.4508 89.4605C45.5487 89.5936 45.6195 89.7449 45.6591 89.9056C45.6989 90.0666 45.7066 90.234 45.6819 90.398C45.6571 90.5621 45.6003 90.7196 45.5148 90.8615C45.4293 91.0034 45.3167 91.127 45.1835 91.2251C45.0503 91.3231 44.8992 91.3938 44.7388 91.433L38.95 92.8692C38.6265 92.9482 38.2849 92.8953 38.0001 92.7219C37.7153 92.5486 37.5104 92.269 37.4302 91.9442Z" fill="#508697"/>
<path d="M99.9854 48.7881C99.7009 48.6141 99.4966 48.3339 99.4172 48.0089C99.3378 47.6838 99.3897 47.3404 99.5615 47.0537L101.136 44.4431C101.308 44.1576 101.586 43.9524 101.908 43.8725C102.23 43.7927 102.571 43.8447 102.856 44.0171C102.997 44.1027 103.12 44.2156 103.218 44.3492C103.316 44.4828 103.387 44.6346 103.426 44.7957C103.465 44.9569 103.473 45.1243 103.448 45.2883C103.422 45.4523 103.365 45.6097 103.279 45.7514L101.711 48.3621C101.538 48.648 101.259 48.8533 100.936 48.9331C100.612 49.013 100.271 48.9608 99.9854 48.7881Z" fill="#508697"/>
<path d="M58.2842 118.382C57.9998 118.208 57.7955 117.927 57.716 117.602C57.6366 117.277 57.6885 116.934 57.8603 116.647L59.8041 113.422C59.8887 113.28 60.0004 113.156 60.1328 113.058C60.2653 112.96 60.4157 112.889 60.5756 112.849C60.7355 112.809 60.9016 112.802 61.0643 112.827C61.227 112.852 61.3832 112.91 61.5237 112.996C61.8088 113.168 62.0142 113.446 62.0948 113.771C62.1755 114.095 62.1247 114.438 61.9536 114.724L60.0099 117.956C59.8368 118.241 59.558 118.447 59.2346 118.527C58.9112 118.606 58.5695 118.554 58.2842 118.382Z" fill="#508697"/>
<path d="M112.829 100.699C112.913 100.557 113.025 100.434 113.157 100.335C113.29 100.237 113.44 100.166 113.6 100.126C113.76 100.087 113.926 100.079 114.089 100.104C114.252 100.13 114.408 100.187 114.548 100.273L117.152 101.849C117.437 102.023 117.641 102.304 117.72 102.629C117.8 102.954 117.748 103.297 117.576 103.584C117.403 103.87 117.124 104.075 116.801 104.155C116.477 104.235 116.135 104.182 115.85 104.01L113.253 102.428C112.969 102.255 112.764 101.976 112.685 101.651C112.605 101.327 112.657 100.985 112.829 100.699Z" fill="#508697"/>
<path d="M43.5927 58.8063C43.7647 58.5209 44.0425 58.3157 44.3649 58.2358C44.6873 58.156 45.0281 58.2079 45.3124 58.3804L48.5277 60.3338C48.8121 60.5078 49.0164 60.788 49.0958 61.113C49.1753 61.4381 49.1234 61.7815 48.9515 62.0682C48.7795 62.3536 48.5018 62.5588 48.1794 62.6387C47.857 62.7185 47.5162 62.6666 47.2319 62.4941L44.0166 60.5711C43.8716 60.4849 43.7453 60.3704 43.6452 60.2343C43.5451 60.0982 43.4731 59.9433 43.4336 59.7787C43.3941 59.6142 43.3878 59.4434 43.4151 59.2763C43.4425 59.1093 43.5028 58.9495 43.5927 58.8063Z" fill="#508697"/>
<path d="M80.7177 80.8416C80.6232 80.9985 80.4989 81.135 80.3519 81.2435C80.2048 81.3519 80.0379 81.4301 79.8608 81.4737C79.6836 81.5172 79.4996 81.5252 79.3193 81.4971C79.1391 81.4691 78.9661 81.4056 78.8103 81.3102L58.2834 68.762C58.1275 68.6676 57.9918 68.5433 57.8839 68.396C57.7761 68.2488 57.6983 68.0816 57.655 67.904C57.6116 67.7264 57.6037 67.542 57.6315 67.3613C57.6593 67.1806 57.7224 67.0073 57.8171 66.8512C57.911 66.6945 58.0347 66.5581 58.1813 66.4498C58.3278 66.3414 58.4941 66.2632 58.6708 66.2196C58.8475 66.1761 59.031 66.168 59.2108 66.196C59.3906 66.224 59.5631 66.2874 59.7184 66.3826L80.2757 78.9308C80.5851 79.1264 80.8051 79.437 80.8879 79.7948C80.9707 80.1527 80.9095 80.5289 80.7177 80.8416Z" fill="#508697"/>
<path d="M80.8873 82.575C80.7313 82.48 80.5954 82.3551 80.4875 82.2073C80.3796 82.0595 80.3017 81.8918 80.2584 81.7137C80.2151 81.5357 80.2072 81.3508 80.2351 81.1696C80.263 80.9885 80.3262 80.8146 80.421 80.658L90.8541 63.3997C91.0448 63.0846 91.352 62.8584 91.7084 62.7706C92.0648 62.6827 92.4413 62.7405 92.7554 62.9311C93.0693 63.1239 93.2945 63.4338 93.3819 63.7929C93.4692 64.1521 93.4116 64.5314 93.2217 64.848L82.7886 82.1064C82.6947 82.263 82.571 82.3994 82.4245 82.5078C82.2779 82.6162 82.1116 82.6944 81.9349 82.7379C81.7582 82.7815 81.5747 82.7895 81.3949 82.7615C81.2151 82.7336 81.0426 82.6702 80.8873 82.575Z" fill="#508697"/>
<path d="M85.4778 79.966C85.7176 80.937 85.665 81.9577 85.3268 82.8986C84.9886 83.8395 84.38 84.6583 83.5781 85.2511C82.7763 85.844 81.8173 86.1841 80.8228 86.2285C79.8283 86.2728 78.8431 86.0194 77.9922 85.5003C77.1412 84.9811 76.4628 84.2197 76.043 83.3126C75.6232 82.4055 75.4809 81.3935 75.6341 80.405C75.7874 79.4165 76.2292 78.496 76.9037 77.7602C77.5782 77.0244 78.4549 76.5065 79.4227 76.2721C80.7127 75.9614 82.0726 76.1751 83.2066 76.8669C84.3405 77.5587 85.1568 78.6725 85.4778 79.966Z" fill="#549FAA"/>
<path d="M191.269 135.84L176.547 128.598L172.381 137.152L187.103 144.394L191.269 135.84Z" fill="#549FAA"/>
<path opacity="0.35" d="M191.269 135.848L176.547 128.605L174.463 132.885L189.185 140.127L191.269 135.848Z" fill="#508697"/>
<path d="M194.127 133.269L176.821 124.756C176.226 124.464 175.508 124.711 175.217 125.309L173.407 129.026C173.116 129.623 173.362 130.345 173.957 130.638L191.262 139.15C191.857 139.443 192.575 139.196 192.866 138.598L194.676 134.881C194.968 134.283 194.721 133.562 194.127 133.269Z" fill="#508697"/>
<path d="M201.014 150.381L200.784 150.037C200.029 148.908 198.505 148.608 197.381 149.368L181.784 159.908C180.661 160.668 180.362 162.199 181.118 163.329L181.348 163.672C182.104 164.802 183.627 165.102 184.751 164.342L200.348 153.801C201.472 153.042 201.77 151.51 201.014 150.381Z" fill="#FF7D40"/>
<path d="M160.826 153.604L161.237 153.575C162.588 153.482 163.608 152.305 163.516 150.947L162.227 132.103C162.135 130.745 160.964 129.719 159.613 129.813L159.202 129.841C157.851 129.934 156.831 131.111 156.923 132.469L158.212 151.314C158.304 152.672 159.475 153.697 160.826 153.604Z" fill="#FF7D40"/>
<path d="M198.417 192.17C208.054 172.383 200.091 148.581 180.63 139.008C161.169 129.435 137.581 137.716 127.944 157.503C118.307 177.291 126.27 201.092 145.731 210.665C165.192 220.238 188.78 211.958 198.417 192.17Z" fill="#7CCDD6"/>
<path d="M192.624 189.304C200.677 172.771 194.024 152.884 177.765 144.886C161.506 136.888 141.798 143.807 133.746 160.341C125.694 176.874 132.346 196.761 148.605 204.759C164.864 212.757 184.572 205.837 192.624 189.304Z" fill="white"/>
<path d="M173.338 154.196L173.137 154.097C172.467 153.767 171.658 154.046 171.33 154.719L163.408 170.978C163.08 171.651 163.357 172.464 164.027 172.794L164.228 172.893C164.898 173.223 165.706 172.944 166.034 172.271L173.957 156.011C174.285 155.338 174.008 154.525 173.338 154.196Z" fill="#549FAA"/>
<path d="M167.118 176.754C166.729 177.532 166.12 178.176 165.367 178.607C164.614 179.037 163.751 179.234 162.887 179.172C162.023 179.111 161.196 178.794 160.511 178.261C159.826 177.729 159.313 177.004 159.036 176.179C158.76 175.354 158.732 174.466 158.957 173.625C159.183 172.784 159.65 172.029 160.301 171.455C160.952 170.881 161.758 170.513 162.616 170.398C163.475 170.283 164.348 170.426 165.126 170.808C166.175 171.331 166.974 172.252 167.347 173.367C167.721 174.482 167.639 175.7 167.118 176.754Z" fill="#7CCDD6"/>
<path d="M176.999 146.614L176.787 146.51C176.412 146.325 175.958 146.482 175.775 146.859L173.846 150.822C173.662 151.199 173.817 151.655 174.193 151.84L174.405 151.944C174.78 152.129 175.234 151.972 175.417 151.595L177.347 147.632C177.53 147.255 177.375 146.799 176.999 146.614Z" stroke="#508697" stroke-miterlimit="10"/>
<path d="M152.413 197.302L152.201 197.198C151.826 197.013 151.372 197.169 151.189 197.546L149.258 201.509C149.074 201.886 149.229 202.342 149.605 202.527L149.817 202.631C150.192 202.816 150.646 202.66 150.83 202.282L152.76 198.32C152.944 197.943 152.789 197.487 152.413 197.302Z" stroke="#508697" stroke-miterlimit="10"/>
<path d="M191.104 188.311L191.208 188.098C191.392 187.72 191.237 187.264 190.861 187.08L186.917 185.14C186.541 184.956 186.088 185.112 185.904 185.49L185.8 185.703C185.616 186.081 185.772 186.537 186.147 186.721L190.091 188.661C190.467 188.845 190.92 188.689 191.104 188.311Z" stroke="#508697" stroke-miterlimit="10"/>
<path d="M140.688 163.651L140.792 163.438C140.976 163.06 140.821 162.604 140.445 162.419L136.501 160.479C136.126 160.295 135.672 160.451 135.488 160.829L135.385 161.042C135.201 161.42 135.356 161.876 135.732 162.06L139.675 164C140.051 164.185 140.504 164.029 140.688 163.651Z" stroke="#508697" stroke-miterlimit="10"/>
<path d="M191.759 164.827L191.683 164.602C191.547 164.205 191.117 163.993 190.722 164.129L188.499 164.895C188.104 165.031 187.893 165.464 188.029 165.861L188.105 166.086C188.241 166.483 188.671 166.695 189.066 166.559L191.289 165.793C191.684 165.657 191.895 165.224 191.759 164.827Z" stroke="#508697" stroke-miterlimit="10"/>
<path d="M138.99 183.124L138.913 182.899C138.778 182.502 138.347 182.29 137.952 182.426L135.254 183.356C134.859 183.492 134.648 183.924 134.783 184.322L134.86 184.546C134.996 184.944 135.426 185.156 135.821 185.019L138.519 184.09C138.915 183.954 139.126 183.521 138.99 183.124Z" stroke="#508697" stroke-miterlimit="10"/>
<path d="M172.982 203.199L173.206 203.122C173.601 202.985 173.812 202.553 173.676 202.155L172.915 199.922C172.779 199.524 172.349 199.313 171.953 199.449L171.73 199.526C171.334 199.662 171.124 200.095 171.259 200.492L172.021 202.726C172.157 203.123 172.587 203.335 172.982 203.199Z" stroke="#508697" stroke-miterlimit="10"/>
<path d="M154.783 150.167L155.007 150.09C155.402 149.954 155.613 149.522 155.477 149.124L154.553 146.413C154.417 146.015 153.987 145.804 153.591 145.94L153.368 146.017C152.972 146.153 152.762 146.586 152.897 146.983L153.822 149.694C153.957 150.092 154.388 150.304 154.783 150.167Z" stroke="#508697" stroke-miterlimit="10"/>
</svg>
