<svg width="18" height="18" viewBox="0 0 18 18" fill="none" xmlns="http://www.w3.org/2000/svg">
<path fill-rule="evenodd" clip-rule="evenodd" d="M18 9C18 13.9706 13.9706 18 9 18C4.02943 18 0 13.9706 0 9C0 4.02943 4.02943 0 9 0C13.9706 0 18 4.02943 18 9ZM8.98965 3.05357C9.43345 3.05357 9.79322 3.41335 9.79322 3.85714V11.0571C9.79322 11.5009 9.43345 11.8607 8.98965 11.8607C8.54585 11.8607 8.18608 11.5009 8.18608 11.0571V3.85714C8.18608 3.41335 8.54585 3.05357 8.98965 3.05357ZM9.79322 13.3714C9.79322 12.9276 9.43345 12.5678 8.98965 12.5678C8.54585 12.5678 8.18608 12.9276 8.18608 13.3714V13.8857C8.18608 14.3295 8.54585 14.6893 8.98965 14.6893C9.43345 14.6893 9.79322 14.3295 9.79322 13.8857V13.3714Z" fill="#D20202"/>
</svg>
