<svg width="18" height="18" viewBox="0 0 18 18" fill="none" xmlns="http://www.w3.org/2000/svg">
<path fill-rule="evenodd" clip-rule="evenodd" d="M17.3996 9.00156C17.3996 13.6408 13.6388 17.4016 8.99961 17.4016C4.36041 17.4016 0.599609 13.6408 0.599609 9.00156C0.599609 4.36236 4.36041 0.601562 8.99961 0.601562C13.6388 0.601562 17.3996 4.36236 17.3996 9.00156ZM8.99961 4.95156C7.92264 4.95156 7.04961 5.82462 7.04961 6.90156V7.05402C7.04961 7.46823 6.71382 7.80402 6.29961 7.80402C5.8854 7.80402 5.54961 7.46823 5.54961 7.05402V6.90156C5.54961 4.99617 7.09422 3.45156 8.99961 3.45156H9.23148C11.0088 3.45156 12.4496 4.89237 12.4496 6.66969C12.4496 7.80507 11.8513 8.85642 10.8752 9.43635L10.3534 9.74631C9.97908 9.96876 9.74961 10.372 9.74961 10.8075V10.9216C9.74961 11.3358 9.41382 11.6716 8.99961 11.6716C8.5854 11.6716 8.24961 11.3358 8.24961 10.9216V10.8075C8.24961 9.84279 8.75796 8.94948 9.58731 8.45673L10.109 8.14677C10.6302 7.83717 10.9496 7.27584 10.9496 6.66969C10.9496 5.72079 10.1804 4.95156 9.23148 4.95156H8.99961ZM9.74961 13.0815C9.74961 12.6673 9.41382 12.3315 8.99961 12.3315C8.5854 12.3315 8.24961 12.6673 8.24961 13.0815V13.5615C8.24961 13.9757 8.5854 14.3115 8.99961 14.3115C9.41382 14.3115 9.74961 13.9757 9.74961 13.5615V13.0815Z" fill="#A0ABB5"/>
</svg>
