<svg width="32" height="32" viewBox="0 0 32 32" fill="none" xmlns="http://www.w3.org/2000/svg">
<path fill-rule="evenodd" clip-rule="evenodd" d="M9.40322 0.0962843C11.1097 0.0184185 11.6547 0 16 0C20.3453 0 20.8901 0.0184185 22.5967 0.0962843C24.2998 0.17396 25.4628 0.444458 26.4806 0.840011C27.5327 1.24884 28.425 1.79593 29.3145 2.68542C30.2041 3.57497 30.7511 4.46725 31.16 5.51933C31.5555 6.53711 31.826 7.70014 31.9037 9.40322C31.9816 11.1098 32 11.6547 32 16C32 20.3453 31.9816 20.8902 31.9037 22.5968C31.826 24.2998 31.5555 25.4629 31.16 26.4806C30.7511 27.5327 30.2041 28.425 29.3145 29.3145C28.425 30.2041 27.5327 30.7511 26.4806 31.1601C25.4628 31.5555 24.2998 31.826 22.5967 31.9038C20.8901 31.9816 20.3453 32 16 32C11.6547 32 11.1097 31.9816 9.40322 31.9038C7.70014 31.826 6.53711 31.5555 5.51933 31.1601C4.46725 30.7511 3.57491 30.2041 2.68542 29.3145C1.79587 28.425 1.24884 27.5327 0.839948 26.4806C0.444394 25.4629 0.17396 24.2998 0.0962208 22.5968C0.018355 20.8902 0 20.3453 0 16C0 11.6546 0.018355 11.1098 0.0962208 9.40322C0.17396 7.70014 0.444394 6.53711 0.839948 5.51933C1.24884 4.46725 1.79587 3.57497 2.68542 2.68542C3.57491 1.79593 4.46725 1.24884 5.51933 0.840011C6.53711 0.444458 7.70014 0.17396 9.40322 0.0962843ZM22.4653 2.97611C20.7782 2.89914 20.2722 2.88288 16 2.88288C11.7278 2.88288 11.2218 2.89914 9.5346 2.97611C7.97468 3.04731 7.12742 3.30796 6.56363 3.52708C5.81685 3.81733 5.28379 4.16404 4.72394 4.72397C4.16408 5.28382 3.8173 5.81682 3.52705 6.56366C3.308 7.12745 3.04734 7.97464 2.97615 9.53463C2.89917 11.2218 2.88291 11.7278 2.88291 16C2.88291 20.2722 2.89917 20.7782 2.97615 22.4654C3.04734 24.0254 3.308 24.8725 3.52705 25.4363C3.8173 26.1831 4.16408 26.7162 4.72394 27.276C5.28379 27.836 5.81685 28.1827 6.56363 28.4729C7.12742 28.692 7.97468 28.9527 9.53466 29.0238C11.2215 29.1008 11.7275 29.1171 16 29.1171C20.2725 29.1171 20.7785 29.1008 22.4653 29.0238C24.0253 28.9527 24.8725 28.692 25.4363 28.4729C26.1832 28.1827 26.7162 27.836 27.2761 27.276C27.8359 26.7162 28.1826 26.1831 28.473 25.4363C28.692 24.8725 28.9527 24.0254 29.0239 22.4653C29.1008 20.7782 29.1171 20.2722 29.1171 16C29.1171 11.7278 29.1008 11.2218 29.0239 9.53463C28.9527 7.97464 28.692 7.12745 28.473 6.56366C28.1826 5.81682 27.8359 5.28382 27.2761 4.7239C26.7162 4.16404 26.1832 3.81733 25.4363 3.52708C24.8725 3.30796 24.0253 3.04731 22.4653 2.97611ZM10.6667 16.0013C10.6667 18.9468 13.0545 21.3346 16 21.3346C18.9455 21.3346 21.3334 18.9468 21.3334 16.0013C21.3334 13.0558 18.9455 10.668 16 10.668C13.0545 10.668 10.6667 13.0558 10.6667 16.0013ZM7.78375 16.0013C7.78375 11.4636 11.4623 7.78516 16 7.78516C20.5377 7.78516 24.2162 11.4636 24.2162 16.0013C24.2162 20.5391 20.5377 24.2176 16 24.2176C11.4623 24.2176 7.78375 20.5391 7.78375 16.0013ZM24.5409 9.37914C25.6013 9.37914 26.4609 8.51956 26.4609 7.45916C26.4609 6.39877 25.6013 5.53919 24.5409 5.53919C23.4805 5.53919 22.6209 6.39877 22.6209 7.45916C22.6209 8.51956 23.4805 9.37914 24.5409 9.37914Z" fill="#A0ABB5"/>
</svg>
