<svg width="19" height="18" viewBox="0 0 19 18" fill="none" xmlns="http://www.w3.org/2000/svg">
<path fill-rule="evenodd" clip-rule="evenodd" d="M2.5002 3.12235H9.5202C10.0173 3.12235 10.4202 2.71939 10.4202 2.22235C10.4202 1.72528 10.0173 1.32235 9.5202 1.32235H2.2002C1.37178 1.32235 0.700195 1.9939 0.700195 2.82235V16.0223C0.700195 16.8508 1.37178 17.5223 2.2002 17.5223H15.4002C16.2286 17.5223 16.9002 16.8508 16.9002 16.0223V8.70241C16.9002 8.20537 16.4973 7.80241 16.0002 7.80241C15.5031 7.80241 15.1002 8.20537 15.1002 8.70241V15.7223H2.5002V3.12235ZM18.0864 2.88718C18.496 2.4775 18.496 1.8133 18.0864 1.40365L17.0257 0.343001C16.6153 -0.0674587 15.9498 -0.0674587 15.5394 0.343001L7.21011 8.67229C6.45993 9.42244 5.97945 10.4 5.84367 11.4521L5.71365 12.4597C5.6946 12.6075 5.82045 12.7334 5.96823 12.7143L6.97584 12.5843C8.028 12.4485 9.00552 11.968 9.75566 11.2178L18.0864 2.88718ZM15.5517 5.42152L13.0075 2.87734L14.2803 1.60453L16.8245 4.14874L15.5517 5.42152Z" fill="#A0ABB5"/>
</svg>
