<svg width="24" height="24" viewBox="0 0 24 24" fill="none" xmlns="http://www.w3.org/2000/svg">
<path d="M12 4.04526C12 3.46798 11.5305 2.99373 10.9571 3.06063C9.54622 3.22522 8.18911 3.72215 6.99987 4.51677C5.51982 5.50571 4.36627 6.91131 3.68508 8.55585C3.0039 10.2004 2.82567 12.01 3.17293 13.7558C3.5202 15.5016 4.37737 17.1053 5.63604 18.364C6.89471 19.6226 8.49836 20.4798 10.2442 20.8271C11.99 21.1743 13.7996 20.9961 15.4442 20.3149C17.0887 19.6337 18.4943 18.4802 19.4832 17.0001C20.2779 15.8109 20.7748 14.4538 20.9394 13.0429C21.0063 12.4695 20.532 12 19.9547 12C19.3775 12 18.9176 12.4706 18.8306 13.0413C18.6786 14.0379 18.3098 14.9935 17.745 15.8387C16.9858 16.975 15.9067 17.8606 14.6441 18.3835C13.3816 18.9065 11.9923 19.0433 10.652 18.7767C9.31172 18.5101 8.08056 17.8521 7.11426 16.8857C6.14795 15.9194 5.48988 14.6883 5.22328 13.348C4.95667 12.0077 5.0935 10.6184 5.61647 9.35585C6.13943 8.09331 7.02504 7.0142 8.16129 6.25497C9.00649 5.69023 9.96214 5.32135 10.9587 5.16942C11.5294 5.08242 12 4.62254 12 4.04526Z" fill="#A0ABB5"/>
</svg>
