<svg width="180" height="32" viewBox="0 0 180 32" fill="none" xmlns="http://www.w3.org/2000/svg">
<rect x="18.543" y="3.64062" width="13.7455" height="24.7025" fill="#FF5F00"/>
<path d="M19.4159 15.9962C19.4121 11.1766 21.6246 6.62286 25.4159 3.64713C18.9751 -1.41467 9.72578 -0.677375 4.16819 5.34086C-1.3894 11.3591 -1.3894 20.6377 4.16819 26.6559C9.72578 32.6742 18.9751 33.4115 25.4159 28.3497C21.6234 25.373 19.4107 20.8174 19.4159 15.9962Z" fill="#EB001B"/>
<path d="M50.8342 16.0023C50.8341 22.0168 47.3998 27.5034 41.9899 30.1317C36.58 32.76 30.1443 32.0687 25.416 28.3514C29.2057 25.3731 31.4183 20.82 31.4183 16.0001C31.4183 11.1802 29.2057 6.62708 25.416 3.64883C30.1449 -0.0689955 36.5816 -0.759957 41.9918 1.86946C47.4021 4.49888 50.8357 9.98693 50.8342 16.0023Z" fill="#F79E1B"/>
<path fill-rule="evenodd" clip-rule="evenodd" d="M50.6186 25.1211V26.7097L50.4803 26.7211V25.5183L50.273 26.5509H50.1295L49.9222 25.5183V26.7097H49.8106V25.1211H50.0073L50.2305 26.2558L50.4538 25.1211H50.6186ZM49.3906 25.3934V26.7098L49.2684 26.7211V25.4048H49.0186V25.1324H49.6405V25.3934H49.3906Z" fill="#F79E1B"/>
<path fill-rule="evenodd" clip-rule="evenodd" d="M175.869 16.0617V6.64062H173.596V12.1039C172.81 11.089 171.58 10.5181 170.297 10.5723C167.369 10.5723 165.061 12.8675 165.061 16.0574C165.061 19.2472 167.356 21.5424 170.297 21.5424C171.58 21.5966 172.81 21.0257 173.596 20.0108V21.2763H175.869V16.0617ZM108.107 10.8399H111.82L111.816 12.917H108.102V17.6384C108.102 18.6857 108.477 19.3839 109.612 19.3839C110.322 19.3608 111.014 19.1581 111.624 18.7948L112.278 20.741C111.426 21.2717 110.441 21.5515 109.437 21.5482C106.749 21.5482 105.811 20.1039 105.811 17.6777V12.917H103.691V10.8399H105.811V7.67188H108.107V10.8399ZM77.8579 14.7408V21.2862H75.5582V15.4739C75.5582 13.7022 74.7728 12.7204 73.2629 12.7204C71.7531 12.7204 70.7059 13.6804 70.7059 15.4957V21.2862H68.4237V15.4739C68.4237 13.7022 67.7037 12.7204 66.1502 12.7204C64.5968 12.7204 63.5931 13.6804 63.5931 15.4957V21.2862H61.2979V10.8309H63.5713V12.14C64.243 11.1183 65.4046 10.5276 66.6259 10.5866C68.0301 10.527 69.3544 11.2403 70.0775 12.4455C70.8708 11.2037 72.2768 10.4915 73.7473 10.5866C76.2826 10.6084 77.8579 12.2709 77.8579 14.7408ZM131.208 10.5755C130.078 10.5426 129.022 11.1304 128.454 12.1072V10.8374H126.203V21.2839H128.476V15.4279C128.476 13.6824 129.218 12.7399 130.706 12.7399C131.193 12.7329 131.676 12.8218 132.128 13.0017L132.827 10.8592C132.307 10.6733 131.759 10.5774 131.208 10.5755ZM97.6339 10.5751C99.1301 10.5226 100.61 10.9013 101.897 11.666L100.92 13.5075C99.9282 12.9377 98.8079 12.6298 97.6644 12.6129C96.4164 12.6129 95.6746 13.0711 95.6746 13.8347C95.6746 14.5329 96.4644 14.7293 97.4462 14.8602L98.5153 15.0129C100.784 15.3402 102.163 16.3002 102.163 18.1373C102.163 20.1227 100.413 21.5453 97.3982 21.5453C95.7834 21.5896 94.1971 21.1139 92.8731 20.1882L93.9073 18.4209C94.9149 19.1673 96.1449 19.5517 97.3982 19.5118C98.9517 19.5118 99.7808 19.0493 99.7808 18.242C99.7808 17.6529 99.1873 17.3257 97.9437 17.1511L96.8746 16.9984C94.5357 16.6711 93.2702 15.6238 93.2702 13.9177C93.2702 11.8449 94.9895 10.5751 97.6339 10.5751ZM162.779 10.5755C161.649 10.5426 160.593 11.1304 160.025 12.1072V10.8374H157.773V21.2839H160.047V15.4279C160.047 13.6824 160.789 12.7399 162.277 12.7399C162.764 12.7329 163.247 12.8218 163.699 13.0017L164.397 10.8592C163.878 10.6733 163.33 10.5774 162.779 10.5755ZM139.075 21.5481C135.711 21.5481 133.503 19.231 133.503 16.063V16.0543C133.503 12.8863 135.711 10.5692 139.075 10.5692C140.44 10.5017 141.78 10.9469 142.832 11.8172L141.741 13.6543C140.956 13.0558 139.998 12.7268 139.01 12.7161C137.199 12.7379 135.864 14.0514 135.864 16.0586C135.864 18.0659 137.195 19.4012 139.01 19.4012C139.998 19.3905 140.956 19.0615 141.741 18.463L142.832 20.3001C141.78 21.1704 140.44 21.6156 139.075 21.5481ZM154.789 16.0603V10.8239H152.515V12.0938C151.729 11.0788 150.499 10.508 149.216 10.5621C146.288 10.5621 143.98 12.8574 143.98 16.0472C143.98 19.237 146.275 21.5323 149.216 21.5323C150.499 21.5864 151.729 21.0156 152.515 20.0007V21.2661H154.789V16.0603ZM149.5 12.7192C147.532 12.7192 146.332 14.2246 146.332 16.0617C146.332 17.8945 147.532 19.4043 149.5 19.4043C151.381 19.4043 152.646 17.9599 152.646 16.0617C152.646 14.1635 151.381 12.7192 149.5 12.7192ZM118.902 10.5747C115.848 10.5747 113.701 12.8045 113.701 16.0598C113.701 19.3805 115.931 21.5449 119.055 21.5449C120.615 21.5995 122.14 21.0776 123.34 20.0787L122.227 18.3943C121.359 19.0887 120.284 19.4727 119.173 19.4852C117.707 19.4852 116.376 18.8089 116.048 16.9281H123.807C123.829 16.6445 123.851 16.3609 123.851 16.0554C123.851 12.8001 121.817 10.5703 118.889 10.5703L118.902 10.5747ZM121.503 15.1453C121.263 13.5272 120.326 12.611 118.861 12.6101C117.243 12.611 116.328 13.6362 116.088 15.1453H121.503ZM178.789 20.373C178.708 20.3388 178.62 20.321 178.532 20.3206H178.536C178.44 20.3184 178.345 20.3362 178.256 20.373C178.095 20.4393 177.967 20.5662 177.899 20.7264C177.828 20.8909 177.828 21.0769 177.899 21.2414C178.007 21.4907 178.255 21.6506 178.527 21.6472C178.617 21.6479 178.706 21.6301 178.789 21.5948C178.868 21.5605 178.941 21.5117 179.003 21.4508C179.063 21.3908 179.112 21.3197 179.147 21.2414C179.217 21.077 179.217 20.8908 179.147 20.7264C179.112 20.648 179.064 20.5769 179.003 20.517C178.941 20.4559 178.869 20.407 178.789 20.373ZM178.535 21.4989C178.601 21.4989 178.667 21.4855 178.728 21.4595C178.788 21.4335 178.843 21.3965 178.889 21.3504C179.091 21.1478 179.091 20.82 178.889 20.6174C178.843 20.571 178.788 20.534 178.728 20.5083C178.664 20.4815 178.596 20.4682 178.527 20.469C178.457 20.4681 178.387 20.4814 178.322 20.5083C178.164 20.5757 178.049 20.717 178.016 20.8855C177.983 21.0541 178.035 21.2281 178.156 21.3504C178.204 21.3971 178.26 21.4342 178.322 21.4595C178.389 21.4876 178.462 21.501 178.535 21.4989ZM178.535 21.4989L178.527 21.4988H178.536L178.535 21.4989ZM178.749 20.721C178.696 20.6826 178.632 20.6641 178.566 20.6687L178.283 20.673V21.2839H178.413V21.0527H178.475L178.662 21.2839H178.819L178.619 21.0527C178.672 21.0486 178.723 21.0272 178.763 20.9916C178.797 20.9589 178.817 20.9128 178.815 20.865C178.817 20.8093 178.793 20.7558 178.749 20.721ZM178.413 20.7847V20.9505H178.566C178.593 20.9584 178.622 20.9584 178.649 20.9505C178.669 20.9368 178.681 20.9137 178.68 20.8894C178.681 20.8651 178.669 20.842 178.649 20.8283C178.622 20.8204 178.593 20.8204 178.566 20.8283L178.413 20.7847ZM170.589 12.7192C168.621 12.7192 167.421 14.2246 167.421 16.0617C167.421 17.8945 168.621 19.4043 170.589 19.4043C172.47 19.4043 173.736 17.9599 173.736 16.0617C173.736 14.1635 172.47 12.7192 170.589 12.7192ZM90.6651 16.0627V10.8264H88.3917V12.0962C87.6051 11.09 86.3819 10.5247 85.1059 10.5776C82.1779 10.5776 79.8695 12.8729 79.8695 16.0627C79.8695 19.2525 82.1648 21.5478 85.1059 21.5478C86.3887 21.602 87.6183 21.0311 88.4048 20.0162V21.2816H90.6782L90.6651 16.0627ZM85.3764 12.7192C83.4084 12.7192 82.2084 14.2246 82.2084 16.0617C82.2084 17.8988 83.4084 19.4043 85.3764 19.4043C87.2571 19.4043 88.5226 17.9599 88.5226 16.0617C88.5226 14.1635 87.2571 12.7192 85.3764 12.7192Z" fill="white"/>
</svg>
