<svg width="164" height="14" viewBox="0 0 164 14" fill="none" xmlns="http://www.w3.org/2000/svg">
<path d="M8.71552 3.92992H7.48355C7.05109 3.01092 6.06804 2.31525 4.60028 2.31525C2.81787 2.31525 1.12715 3.62792 1.12715 6.09608C1.12715 8.23592 2.59507 9.90308 4.66584 9.90308C6.1336 9.90308 7.14277 9.18108 7.61466 8.11775H8.84664C8.07341 9.75875 6.802 10.8744 4.61342 10.8744C1.86111 10.8744 0 8.82658 0 6.08292C0 3.33925 2.00521 1.34375 4.61342 1.34375C7.07721 1.34375 8.23065 2.78775 8.71552 3.92992Z" fill="#7B878F"/>
<path fill-rule="evenodd" clip-rule="evenodd" d="M9.25734 9.65287H9.1001V12.6199H10.1354V10.585H15.3124V12.6199H16.3477V9.65287H15.3778V4.29688H11.0266L10.7907 6.84354C10.581 9.07538 9.93889 9.65287 9.25734 9.65287ZM11.931 5.23047H14.3425V9.65447H10.9349C11.4198 9.10314 11.6558 8.32864 11.7998 6.7403L11.931 5.23047Z" fill="#7B878F"/>
<path fill-rule="evenodd" clip-rule="evenodd" d="M22.9317 7.73544C22.9447 7.66977 22.9579 7.47277 22.9579 7.35477C22.9579 5.97644 22.1322 4.0991 19.8518 4.08594C17.9514 4.08594 16.7324 5.62194 16.7324 7.35477C16.7324 9.3106 18.0694 10.8073 20.0615 10.8073C21.5424 10.8073 22.4204 9.9146 22.8399 9.12694H21.6474C21.241 9.6126 20.7823 9.88827 20.0353 9.88827C18.8558 9.88827 17.8072 8.8776 17.8072 7.73544H22.9317ZM21.8702 6.86891H17.8203C17.912 5.91058 18.6591 4.99158 19.8518 4.99158C20.9921 4.99158 21.7652 5.88441 21.8702 6.86891Z" fill="#7B878F"/>
<path d="M24.9116 4.29688H29.643V10.585H28.6075V5.22887H25.8815L25.5669 8.70771C25.4358 10.1124 25.0164 10.6637 23.8893 10.6637C23.6928 10.6637 23.5093 10.6375 23.3389 10.5982V9.75804C23.4307 9.78421 23.6534 9.81038 23.7845 9.81038C24.2825 9.81038 24.479 9.46904 24.5446 8.70771L24.9116 4.29688Z" fill="#7B878F"/>
<path fill-rule="evenodd" clip-rule="evenodd" d="M36.3251 10.5841H37.3604V4.29594H36.3251V5.20177H36.312C35.8795 4.68977 35.2111 4.08594 34.0708 4.08594C32.1968 4.08594 30.7812 5.49044 30.7812 7.43344C30.7812 9.48144 32.3016 10.8073 34.0053 10.8073C35.067 10.8073 35.8403 10.2953 36.2989 9.74394H36.3251V10.5841ZM36.4168 7.47274C36.4168 8.89058 35.3291 9.88824 34.1495 9.88824C32.6029 9.88824 31.856 8.64124 31.856 7.43341C31.856 6.22558 32.6029 4.99158 34.1756 4.99158C35.4078 4.99158 36.4168 5.97624 36.4168 7.47274Z" fill="#7B878F"/>
<path d="M44.419 10.585H43.3837V7.73638H39.9368V10.585H38.9014V4.29688H39.9368V6.86987H43.3837V4.29688H44.419V10.585Z" fill="#7B878F"/>
<path fill-rule="evenodd" clip-rule="evenodd" d="M52.2674 7.43344C52.2674 5.52994 50.8651 4.08594 48.9123 4.08594C47.0251 4.08594 45.5571 5.4906 45.5571 7.43344C45.5571 9.3371 47.0119 10.8073 48.9123 10.8073C50.8521 10.8073 52.2674 9.28444 52.2674 7.43344ZM51.1928 7.43486C51.1928 8.8132 50.2361 9.86353 48.9123 9.86353C47.7064 9.86353 46.6318 8.8527 46.6318 7.43486C46.6318 6.04336 47.5755 5.01953 48.9123 5.01953C50.2885 5.01953 51.1928 6.10903 51.1928 7.43486Z" fill="#7B878F"/>
<path fill-rule="evenodd" clip-rule="evenodd" d="M59.2915 4.29688H56.9194V10.585H59.5668C61.0215 10.585 61.8603 9.82354 61.8603 8.70771C61.8603 8.02504 61.4542 7.36871 60.3663 7.15871C61.0871 6.93554 61.3623 6.39738 61.3623 5.88538C61.3623 4.84821 60.5628 4.29688 59.2915 4.29688ZM57.9155 5.16339V6.86989H59.0819C59.9207 6.86989 60.34 6.55489 60.34 5.99022C60.34 5.42589 59.9076 5.16339 59.226 5.16339H57.9155ZM57.9155 7.73828V9.72061H59.6324C60.458 9.72061 60.8249 9.23478 60.8249 8.72278C60.8249 8.09261 60.4188 7.73828 59.4751 7.73828H57.9155Z" fill="#7B878F"/>
<path fill-rule="evenodd" clip-rule="evenodd" d="M68.3357 0C66.9025 0 65.7153 1.0005 65.7153 2.37817C65.7153 3.3785 66.4683 4.29217 67.3224 4.55317C66.7578 5.04617 66.3235 5.95983 66.3235 7.1055C66.3235 9.208 67.9159 10.8322 70.0296 10.8322C72.1867 10.8322 73.7357 9.15 73.7357 7.1055C73.7357 5.00283 72.2012 3.40767 70.0296 3.40767H68.8425C68.0751 3.40767 67.3658 3.17567 67.3658 2.37817C67.3658 1.7835 67.8002 1.45 68.3357 1.45C68.7935 1.45 69.2263 1.66008 69.6893 1.88487C70.222 2.14346 70.7948 2.4215 71.4918 2.4215C73.1421 2.4215 74.1122 1.3775 74.1122 0H72.4618C72.4618 0.594333 72.0275 0.9715 71.4918 0.9715C71.0918 0.9715 70.671 0.772204 70.2106 0.554144C69.6545 0.290759 69.0406 0 68.3357 0ZM72.0999 7.10549C72.0999 8.39599 71.2603 9.38199 70.0296 9.38199C68.915 9.38199 67.974 8.43949 67.974 7.10549C67.974 5.81482 68.7847 4.84332 70.0296 4.84332C71.3182 4.84332 72.0999 5.87282 72.0999 7.10549Z" fill="white"/>
<path fill-rule="evenodd" clip-rule="evenodd" d="M77.4878 6.30642H76.4456V3.63825H74.8242V10.5842H76.4456V7.59708H77.4446C77.6616 9.45325 79.1383 10.8307 81.0928 10.8307C83.2499 10.8307 84.7988 9.14858 84.7988 7.10408C84.7988 5.00142 83.2644 3.40625 81.0928 3.40625C79.2541 3.40625 77.8208 4.59525 77.4878 6.30642ZM83.1485 7.10592C83.1485 8.39642 82.3087 9.38242 81.0927 9.38242C79.9634 9.38242 79.0225 8.43992 79.0225 7.10592C79.0225 5.81525 79.8478 4.84375 81.0927 4.84375C82.3668 4.84375 83.1485 5.87325 83.1485 7.10592Z" fill="white"/>
<path fill-rule="evenodd" clip-rule="evenodd" d="M87.2431 3.63921H85.665V13.9929H87.2576V9.74421H87.301C87.7643 10.3242 88.5172 10.8319 89.5884 10.8319C91.456 10.8319 92.9907 9.30921 92.9907 7.13404C92.9907 4.90087 91.456 3.42188 89.6753 3.42188C88.4157 3.42188 87.7355 4.00171 87.2865 4.52387H87.2431V3.63921ZM87.1852 7.14856C87.1852 5.7564 88.0972 4.8429 89.2265 4.8429C90.6452 4.8429 91.3257 5.9594 91.3257 7.11956C91.3257 8.26506 90.6307 9.42506 89.241 9.42506C88.1261 9.42506 87.1852 8.49706 87.1852 7.14856Z" fill="white"/>
<path fill-rule="evenodd" clip-rule="evenodd" d="M101.141 7.10408C101.141 5.00142 99.6062 3.40625 97.4346 3.40625C95.3355 3.40625 93.7285 4.95792 93.7285 7.10408C93.7285 9.20658 95.3209 10.8307 97.4346 10.8307C99.5917 10.8307 101.141 9.14858 101.141 7.10408ZM99.5049 7.10592C99.5049 8.39642 98.6653 9.38242 97.4347 9.38242C96.32 9.38242 95.379 8.43992 95.379 7.10592C95.379 5.81525 96.1897 4.84375 97.4347 4.84375C98.7232 4.84375 99.5049 5.87325 99.5049 7.10592Z" fill="white"/>
<path fill-rule="evenodd" clip-rule="evenodd" d="M104.251 0C102.818 0 101.631 1.0005 101.631 2.37817C101.631 3.3785 102.384 4.29217 103.238 4.55317C102.673 5.04617 102.239 5.95983 102.239 7.1055C102.239 9.208 103.831 10.8322 105.945 10.8322C108.102 10.8322 109.651 9.15 109.651 7.1055C109.651 5.00283 108.117 3.40767 105.945 3.40767H104.758C103.99 3.40767 103.281 3.17567 103.281 2.37817C103.281 1.7835 103.715 1.45 104.251 1.45C104.709 1.45 105.142 1.66008 105.605 1.88486C106.137 2.14345 106.71 2.4215 107.407 2.4215C109.058 2.4215 110.028 1.3775 110.028 0H108.377C108.377 0.594333 107.943 0.9715 107.407 0.9715C107.007 0.9715 106.586 0.77219 106.126 0.554122C105.57 0.290742 104.956 0 104.251 0ZM108.015 7.10549C108.015 8.39599 107.176 9.38199 105.945 9.38199C104.83 9.38199 103.889 8.43949 103.889 7.10549C103.889 5.81482 104.7 4.84332 105.945 4.84332C107.234 4.84332 108.015 5.87282 108.015 7.10549Z" fill="white"/>
<path fill-rule="evenodd" clip-rule="evenodd" d="M113.403 6.30642H112.361V3.63825H110.739V10.5842H112.361V7.59708H113.36C113.577 9.45325 115.054 10.8307 117.008 10.8307C119.165 10.8307 120.714 9.14858 120.714 7.10408C120.714 5.00142 119.18 3.40625 117.008 3.40625C115.169 3.40625 113.736 4.59525 113.403 6.30642ZM119.064 7.10592C119.064 8.39642 118.224 9.38242 117.008 9.38242C115.879 9.38242 114.938 8.43992 114.938 7.10592C114.938 5.81525 115.763 4.84375 117.008 4.84375C118.282 4.84375 119.064 5.87325 119.064 7.10592Z" fill="white"/>
<path fill-rule="evenodd" clip-rule="evenodd" d="M123.158 3.63921H121.581V13.9929H123.173V9.74421H123.216C123.68 10.3242 124.432 10.8319 125.504 10.8319C127.371 10.8319 128.906 9.30921 128.906 7.13404C128.906 4.90087 127.371 3.42188 125.591 3.42188C124.331 3.42188 123.651 4.00171 123.202 4.52387H123.158V3.63921ZM123.101 7.14856C123.101 5.7564 124.013 4.8429 125.142 4.8429C126.561 4.8429 127.241 5.9594 127.241 7.11956C127.241 8.26506 126.546 9.42506 125.156 9.42506C124.042 9.42506 123.101 8.49706 123.101 7.14856Z" fill="white"/>
<path fill-rule="evenodd" clip-rule="evenodd" d="M137.056 7.10408C137.056 5.00142 135.521 3.40625 133.35 3.40625C131.25 3.40625 129.644 4.95792 129.644 7.10408C129.644 9.20658 131.236 10.8307 133.35 10.8307C135.507 10.8307 137.056 9.14858 137.056 7.10408ZM135.42 7.10592C135.42 8.39642 134.58 9.38242 133.35 9.38242C132.235 9.38242 131.294 8.43992 131.294 7.10592C131.294 5.81525 132.105 4.84375 133.35 4.84375C134.638 4.84375 135.42 5.87325 135.42 7.10592Z" fill="white"/>
<path d="M147.415 5.9106H146.262C146.012 5.3856 145.462 4.9916 144.584 4.9916C143.391 4.9916 142.356 5.8056 142.356 7.43344C142.356 8.85127 143.326 9.88827 144.649 9.88827C145.632 9.88827 146.104 9.37644 146.353 8.85127H147.507C147.179 9.78327 146.34 10.8073 144.636 10.8073C142.697 10.8073 141.281 9.41577 141.281 7.42044C141.281 5.58244 142.566 4.08594 144.584 4.08594C146.38 4.08594 147.205 5.1886 147.415 5.9106Z" fill="#7B878F"/>
<path fill-rule="evenodd" clip-rule="evenodd" d="M163.129 4.93199C163.129 2.61652 161.491 1.03516 159.46 1.03516C158.605 1.03516 157.789 1.32889 157.116 1.85694C156.443 1.32859 155.628 1.03516 154.774 1.03516C152.742 1.03516 151.104 2.61652 151.104 4.93199C151.104 6.46624 152.105 8.01817 153.757 9.59352C154.314 10.1254 154.913 10.6252 155.518 11.082C155.898 11.3686 156.211 11.5872 156.42 11.7245L156.66 11.8818C156.937 12.0633 157.296 12.0634 157.573 11.8819L157.813 11.7247C158.023 11.5872 158.336 11.3686 158.716 11.082C159.321 10.6252 159.92 10.1254 160.477 9.59352C162.129 8.01817 163.129 6.46624 163.129 4.93199ZM161.463 4.93329C161.463 5.88077 160.674 7.10355 159.327 8.38889C158.544 9.13538 157.737 9.76182 157.117 10.1865C156.497 9.7619 155.689 9.13542 154.907 8.38889C153.56 7.10355 152.771 5.88077 152.771 4.93329C152.771 3.55166 153.65 2.70312 154.774 2.70312C155.415 2.70312 156.026 3.00441 156.472 3.54756C156.806 3.95384 157.428 3.95361 157.761 3.54708C158.205 3.00511 158.818 2.70312 159.46 2.70312C160.584 2.70312 161.463 3.55166 161.463 4.93329Z" fill="#F0463C"/>
</svg>
