<svg width="139" height="48" viewBox="0 0 139 48" fill="none" xmlns="http://www.w3.org/2000/svg">
<path fill-rule="evenodd" clip-rule="evenodd" d="M4.94134 5.94585H1.97363V0.0195312H4.94134V5.94585ZM4.94128 8.94995H7.909V47.5393H4.94128V26.7562V8.94995ZM37.5679 8.94995H34.6002V47.5393H37.5679V26.7562V8.94995ZM40.5357 0.0195312V5.94585H37.568V0.0195312H40.5357Z" fill="#E4E4E5"/>
<path fill-rule="evenodd" clip-rule="evenodd" d="M10.8765 5.94585H13.8442V0.0195312H10.8765V5.94585ZM16.8027 8.94995H13.8441V26.7562V47.5393H16.8027V8.94995ZM7.90869 8.94995H10.8764V26.7562V47.5393H7.90869V8.94995ZM4.94103 8.94995H1.98242V26.7562H4.94103V8.94995ZM19.7705 8.94995H22.7382V26.7562H19.7705V8.94995ZM28.6735 8.94995H25.7058V47.5393H28.6735V26.7562V8.94995ZM37.5676 8.94995H40.5353V26.7562H37.5676V8.94995ZM34.5999 8.94995H31.6322V26.7562V47.5393H34.5999V8.94995ZM31.6322 0.0195312V5.94585H28.6736V0.0195312H31.6322Z" fill="#9CD1CE"/>
<path fill-rule="evenodd" clip-rule="evenodd" d="M19.771 5.94585H22.7387V0.0195312H19.771V5.94585ZM13.8447 8.94995H10.877V26.7562H13.8447V8.94995ZM22.7386 8.94995H25.7064V47.5393H22.7386V26.7562V8.94995ZM19.7709 8.94995H16.8032V47.5393H19.7709V26.7562V8.94995ZM31.6327 8.94995V26.7562H28.6741V8.94995H31.6327Z" fill="#4D79BC"/>
<path d="M59.5189 0V47.5198" stroke="#C9CACB" stroke-width="0.75"/>
<path fill-rule="evenodd" clip-rule="evenodd" d="M86.2164 14.8008C85.6945 14.8069 85.2363 14.9252 84.8418 15.1558C84.4473 15.3925 84.1408 15.7111 83.9223 16.1117C83.6978 16.5062 83.5825 16.9583 83.5764 17.4681C83.5825 17.9961 83.6978 18.4573 83.9223 18.8518C84.153 19.2523 84.4655 19.5649 84.86 19.7894C85.2545 20.014 85.7066 20.1263 86.2164 20.1263C86.7201 20.1263 87.1692 20.011 87.5637 19.7803C87.9582 19.5558 88.2707 19.2432 88.5014 18.8427C88.732 18.4421 88.8473 17.9839 88.8473 17.4681C88.8473 16.934 88.732 16.4697 88.5014 16.0753C88.2707 15.6747 87.9582 15.3622 87.5637 15.1376C87.1692 14.9191 86.7201 14.8069 86.2164 14.8008ZM104.687 25.2789C104.238 25.5034 103.88 25.8008 103.613 26.171L104.414 27.1086C104.639 26.8113 104.882 26.5928 105.143 26.4532C105.403 26.3136 105.698 26.2438 106.026 26.2438C106.365 26.2438 106.642 26.3257 106.854 26.4896C107.072 26.6535 107.185 26.9053 107.191 27.2452C107.185 27.4697 107.127 27.6579 107.018 27.8096C106.915 27.9674 106.775 28.0857 106.599 28.1646C106.429 28.2496 106.244 28.2921 106.044 28.2921H105.27V29.603H106.089C106.551 29.609 106.899 29.7031 107.136 29.8852C107.373 30.0733 107.491 30.3282 107.491 30.6499C107.491 30.923 107.421 31.1445 107.282 31.3144C107.148 31.4904 106.969 31.6209 106.745 31.7059C106.526 31.7848 106.287 31.8242 106.026 31.8242C105.698 31.8242 105.364 31.7332 105.024 31.5511C104.684 31.369 104.387 31.1354 104.132 30.8501L103.376 31.7969C103.51 32.0154 103.701 32.2248 103.95 32.425C104.199 32.6314 104.502 32.7983 104.86 32.9257C105.212 33.0592 105.625 33.129 106.098 33.1351C106.584 33.129 107.039 33.035 107.464 32.8529C107.877 32.6648 108.216 32.3947 108.483 32.0427C108.738 31.6907 108.869 31.2719 108.875 30.7864C108.881 30.3252 108.775 29.9246 108.556 29.5848C108.332 29.257 107.98 29.0264 107.5 28.8929V28.8656C107.871 28.641 108.141 28.371 108.311 28.0554C108.487 27.7459 108.575 27.4333 108.575 27.1177C108.568 26.6444 108.465 26.2468 108.265 25.9252C108.065 25.5975 107.786 25.3517 107.427 25.1878C107.069 25.0179 106.657 24.9329 106.189 24.9329C105.637 24.939 105.136 25.0543 104.687 25.2789ZM92.1703 26.3512C91.9822 25.9628 91.6636 25.6472 91.2145 25.4045C90.7654 25.1678 90.1524 25.0434 89.3756 25.0312C89.236 25.0312 89.063 25.0343 88.8567 25.0404C88.6503 25.0404 88.4349 25.0434 88.2103 25.0495C87.9858 25.0495 87.7764 25.0525 87.5822 25.0586H87.1179V33.0058H88.5198V30.1383C88.6958 30.1504 88.8779 30.1595 89.066 30.1656H89.5485C90.1797 30.1595 90.7107 30.0351 91.1416 29.7923C91.5725 29.5556 91.8972 29.2461 92.1157 28.8638C92.3402 28.4754 92.4525 28.0505 92.4525 27.5893C92.4586 27.1463 92.3645 26.7336 92.1703 26.3512ZM78.515 26.6626L78.597 25.0695H83.5219V31.6968H84.6052V34.4278H83.2943V33.0077H77.7412V34.4278H76.4395V31.6968H77.2861C77.4014 31.5633 77.547 31.2871 77.723 30.8684C77.893 30.4496 78.0538 29.8882 78.2055 29.1842C78.3572 28.4863 78.4604 27.6458 78.515 26.6626ZM82.1383 26.3789H79.9444L79.826 27.7535C79.7714 28.4454 79.6834 29.0644 79.562 29.6106C79.4407 30.1568 79.3102 30.612 79.1706 30.9761C79.0371 31.3342 78.9187 31.5739 78.8156 31.6953H82.1383V26.3789ZM117.141 30.2948C117.141 29.7729 117.035 29.3177 116.822 28.9293C116.61 28.5531 116.282 28.2587 115.839 28.0463C115.396 27.8339 114.831 27.7277 114.146 27.7277C114.036 27.7277 113.903 27.7307 113.745 27.7368C113.587 27.7429 113.42 27.758 113.244 27.7823V25.0695H111.843V33.0077C112.085 33.0077 112.383 33.0107 112.735 33.0168C113.093 33.0228 113.466 33.0259 113.854 33.0259C114.91 33.0198 115.721 32.774 116.285 32.2885C116.855 31.809 117.141 31.1445 117.141 30.2948ZM115.666 30.3239C115.66 29.8809 115.511 29.5562 115.22 29.3499C114.923 29.1375 114.528 29.0312 114.037 29.0312C113.933 29.0312 113.815 29.0373 113.682 29.0495C113.548 29.0555 113.402 29.0707 113.245 29.095V31.6894C113.366 31.6955 113.49 31.7046 113.618 31.7168C113.745 31.7228 113.876 31.7259 114.009 31.7259C114.525 31.7259 114.932 31.6136 115.229 31.389C115.52 31.1706 115.666 30.8155 115.666 30.3239ZM90.7773 28.3103C90.9047 28.1222 90.9715 27.8794 90.9776 27.5821C90.9776 27.1694 90.8532 26.8599 90.6043 26.6535C90.3555 26.4472 89.9914 26.344 89.5119 26.344C89.3723 26.344 89.2176 26.347 89.0477 26.3531C88.8838 26.3531 88.7078 26.3592 88.5197 26.3713V28.8019C88.6835 28.8262 88.8474 28.8414 89.0112 28.8474C89.1812 28.8596 89.345 28.8656 89.5028 28.8656C89.782 28.8656 90.0308 28.8201 90.2493 28.7291C90.4739 28.6381 90.6499 28.4985 90.7773 28.3103ZM100.3 25.0695H101.711L99.007 31.1597C98.7399 31.7666 98.4365 32.2248 98.0966 32.5343C97.7568 32.8499 97.341 33.0077 96.8494 33.0077C96.6431 33.0016 96.4368 32.9712 96.2304 32.9166C96.0301 32.8499 95.8723 32.774 95.757 32.689L96.2486 31.5056C96.3518 31.5784 96.4489 31.63 96.5399 31.6604C96.631 31.6846 96.7311 31.6968 96.8403 31.6968C97.0224 31.6968 97.1802 31.6482 97.3137 31.5511C97.4412 31.4479 97.5443 31.3114 97.6232 31.1415L97.7325 30.8775L94.2277 25.0695H95.8026L98.4061 29.5028L100.3 25.0695ZM124.242 25.0512L123.504 25.033C123.255 25.0269 123.046 25.0239 122.876 25.0239C122.099 25.03 121.471 25.1604 120.992 25.4153C120.512 25.6642 120.16 25.9949 119.936 26.4076C119.711 26.8264 119.599 27.2815 119.599 27.7731C119.605 28.1373 119.672 28.4619 119.799 28.7472C119.927 29.0324 120.097 29.2782 120.309 29.4846C120.515 29.6848 120.746 29.8487 121.001 29.9761L118.962 33.0076H120.537L122.312 30.2584H123.459V33.0076H124.842V25.0603C124.685 25.0603 124.484 25.0573 124.242 25.0512ZM122.585 26.3359C122.117 26.342 121.75 26.4664 121.483 26.7092C121.216 26.9519 121.08 27.2766 121.074 27.6832C121.08 27.9199 121.134 28.1263 121.237 28.3023C121.347 28.4783 121.483 28.6209 121.647 28.7301C121.817 28.8394 121.999 28.9122 122.193 28.9486H123.459V26.3724C123.392 26.3663 123.307 26.3602 123.204 26.3541C123.095 26.3481 122.985 26.345 122.876 26.345C122.767 26.339 122.67 26.3359 122.585 26.3359ZM84.5052 16.392C84.3292 16.7015 84.2412 17.0596 84.2412 17.4662C84.2473 17.8607 84.3353 18.2127 84.5052 18.5222C84.6751 18.8317 84.9088 19.0775 85.2062 19.2596C85.5036 19.4416 85.8404 19.5327 86.2167 19.5327C86.6111 19.5327 86.9571 19.4416 87.2544 19.2596C87.5457 19.0775 87.7733 18.8317 87.9372 18.5222C88.1011 18.2127 88.186 17.8607 88.1921 17.4662C88.186 17.0596 88.098 16.7015 87.9281 16.392C87.7521 16.0825 87.5154 15.8367 87.218 15.6546C86.9206 15.4847 86.5869 15.3967 86.2167 15.3906C85.8343 15.3967 85.4975 15.4847 85.2062 15.6546C84.9088 15.8367 84.6751 16.0825 84.5052 16.392ZM79.0613 14.8203V15.3483C78.5637 15.3544 78.1328 15.4363 77.7686 15.5941C77.3984 15.7519 77.1132 15.9825 76.9129 16.286C76.7066 16.5894 76.6034 16.9566 76.6034 17.3875C76.6034 17.8305 76.7066 18.2037 76.9129 18.5072C77.1193 18.8046 77.4045 19.0352 77.7686 19.1991C78.1388 19.3508 78.5667 19.4297 79.0522 19.4357H79.0613V20.1185H79.6894V19.4357H79.7077C80.1932 19.4297 80.621 19.3477 80.9912 19.1899C81.3614 19.0322 81.6497 18.8015 81.8561 18.4981C82.0624 18.1946 82.1686 17.8244 82.1747 17.3875C82.1686 16.9626 82.0654 16.5985 81.8652 16.2951C81.6528 15.9916 81.3614 15.758 80.9912 15.5941C80.621 15.4363 80.1871 15.3544 79.6894 15.3483V14.8203H79.0613ZM79.0614 15.9375C78.4909 15.9375 78.0509 16.0649 77.7414 16.3198C77.4258 16.5747 77.265 16.9298 77.2589 17.3849C77.265 17.7127 77.3408 17.9827 77.4865 18.1951C77.6322 18.4136 77.8385 18.5775 78.1055 18.6867C78.3726 18.796 78.6881 18.8506 79.0523 18.8506H79.0614V15.9375ZM79.6986 15.9375C80.2751 15.9375 80.7212 16.0649 81.0368 16.3198C81.3463 16.5747 81.5041 16.9298 81.5101 17.3849C81.5041 17.8705 81.3402 18.2376 81.0186 18.4865C80.703 18.7292 80.263 18.8506 79.6986 18.8506H79.6895V15.9375H79.6986ZM97.869 15.9128L97.9146 14.875H100.964V19.4631H101.665V21.0107H101.073V20.0548H97.0497V21.0107H96.458V19.4631H97.0133C97.0922 19.3782 97.1893 19.193 97.3046 18.9078C97.4199 18.6226 97.5322 18.2311 97.6415 17.7335C97.7507 17.2419 97.8266 16.635 97.869 15.9128ZM98.2515 17.9233C98.3426 17.4984 98.4124 16.9886 98.4609 16.3939L98.5246 15.4653H100.336V19.4617H97.7053C97.7781 19.3828 97.8631 19.2129 97.9602 18.9519C98.0573 18.697 98.1544 18.3541 98.2515 17.9233ZM94.2094 17.7153H91.3601V20.0548H90.7319V14.875H91.3601V17.1235H94.2094V14.875H94.8376V20.0548H94.2094V17.7153Z" fill="#A4A6A8"/>
</svg>
