<svg width="144" height="48" viewBox="0 0 144 48" fill="none" xmlns="http://www.w3.org/2000/svg">
<path fill-rule="evenodd" clip-rule="evenodd" d="M43.9164 7.35156H23.6468C21.5942 7.35156 19.7604 8.63532 19.0582 10.5643L11.2051 32.1409C10.5003 34.0642 8.67014 35.3438 6.62109 35.3438H26.8906C28.9433 35.3438 30.7771 34.0601 31.4793 32.1311L39.3324 10.5535C40.0377 8.63067 41.8673 7.35156 43.9164 7.35156Z" fill="#C4A16E"/>
<path fill-rule="evenodd" clip-rule="evenodd" d="M17.6244 10.0419C18.5423 7.51939 20.9623 5.8253 23.6463 5.8253H25.6695L26.8378 2.61461C27.4137 1.0447 28.9081 0 30.581 0H14.0271C12.3506 0 10.8532 1.04833 10.2799 2.62392L3.86624 20.2447C3.29085 21.8156 1.79598 22.8609 0.12207 22.8609H12.9586L17.6244 10.0419Z" fill="#DBC8A7"/>
<path fill-rule="evenodd" clip-rule="evenodd" d="M49.5184 17.0409H50.1254C50.5368 17.0409 50.916 17.0973 51.2622 17.2101C51.6084 17.3239 51.9064 17.4916 52.1568 17.7146C52.4068 17.9371 52.6008 18.2103 52.7374 18.5316C52.875 18.854 52.9433 19.2219 52.9433 19.6322C52.9433 20.0508 52.8678 20.4223 52.7172 20.7483C52.5661 21.0738 52.3623 21.3501 52.1056 21.5762C51.8485 21.8023 51.5478 21.9736 51.2058 22.0905C50.8627 22.2069 50.5026 22.2649 50.1254 22.2649H49.5184V23.1601H47.9868V22.2649H47.3794C46.9685 22.2649 46.5892 22.2085 46.2431 22.0957C45.8969 21.9824 45.6004 21.8142 45.3536 21.5917C45.1068 21.3687 44.9148 21.096 44.7777 20.7742C44.64 20.4518 44.5723 20.0849 44.5723 19.6741C44.5723 19.255 44.6473 18.8835 44.7984 18.5575C44.949 18.232 45.1533 17.9557 45.4105 17.7296C45.6672 17.5035 45.9657 17.3327 46.3052 17.2152C46.6441 17.0988 47.0027 17.0409 47.3794 17.0409H47.9868V16.125H49.5184V17.0409ZM47.4311 18.3676C46.9996 18.3676 46.6699 18.484 46.4438 18.7174C46.2177 18.9502 46.1044 19.2653 46.1044 19.6638C46.1044 20.0674 46.2224 20.3799 46.4594 20.5993C46.6958 20.8187 47.0197 20.9284 47.4311 20.9284H47.9868V18.3676H47.4311ZM50.0742 20.9382C50.5057 20.9382 50.8348 20.8218 51.0614 20.5884C51.2875 20.3556 51.4009 20.0404 51.4009 19.6431C51.4009 19.2384 51.2824 18.9259 51.0459 18.7065C50.8094 18.4871 50.4855 18.3774 50.0742 18.3774H49.5184V20.9382H50.0742Z" fill="#E4E4E3"/>
<path fill-rule="evenodd" clip-rule="evenodd" d="M59.3708 16.3977C59.8236 16.5798 60.209 16.8318 60.5283 17.1542C60.8465 17.4765 61.0954 17.8548 61.2734 18.2905C61.4519 18.7262 61.5409 19.1996 61.5409 19.715C61.5409 20.2081 61.4519 20.6728 61.2734 21.1084C61.0954 21.5436 60.845 21.9239 60.5226 22.2499C60.2008 22.5754 59.8153 22.8325 59.3656 23.0209C58.9165 23.2092 58.4213 23.3039 57.8801 23.3039C57.3445 23.3039 56.855 23.2128 56.409 23.0317C55.9635 22.8491 55.578 22.5981 55.252 22.2758C54.9265 21.9534 54.6745 21.5731 54.4966 21.1343C54.318 20.6955 54.2285 20.2215 54.2285 19.715C54.2285 19.2219 54.318 18.7546 54.4966 18.3158C54.6745 17.877 54.9265 17.4967 55.252 17.1749C55.578 16.852 55.9635 16.5974 56.409 16.408C56.855 16.2197 57.3445 16.125 57.8801 16.125C58.4213 16.125 58.9186 16.2161 59.3708 16.3977ZM56.9901 17.6783C56.7262 17.7948 56.5032 17.9521 56.3215 18.1513C56.1404 18.3505 56.0013 18.5833 55.905 18.8509C55.8088 19.1179 55.7612 19.4061 55.7612 19.715C55.7612 20.0229 55.8088 20.3126 55.905 20.5832C56.0013 20.8544 56.142 21.0888 56.3267 21.2885C56.512 21.4867 56.735 21.6435 56.9952 21.7557C57.256 21.8696 57.551 21.9255 57.8801 21.9255C58.2159 21.9255 58.5155 21.868 58.7799 21.7506C59.0433 21.6352 59.2668 21.4753 59.4479 21.2735C59.6295 21.0707 59.7672 20.8363 59.8598 20.5682C59.9519 20.3012 59.9984 20.0161 59.9984 19.715C59.9984 19.3993 59.9503 19.106 59.8546 18.8348C59.7584 18.5652 59.6197 18.3298 59.4381 18.1316C59.2559 17.9319 59.0334 17.7777 58.769 17.6685C58.5057 17.5588 58.2092 17.5035 57.8801 17.5035C57.551 17.5035 57.254 17.5619 56.9901 17.6783Z" fill="#E4E4E3"/>
<path fill-rule="evenodd" clip-rule="evenodd" d="M64.6397 18.9643H67.6533V16.2695H69.2061V23.1608H67.6533V20.3945H64.6397V23.1608H63.0869V16.2695H64.6397V18.9643Z" fill="#E4E4E3"/>
<path fill-rule="evenodd" clip-rule="evenodd" d="M77.4427 21.772H78.4408V22.1937L78.3068 24.6003H76.918L76.8564 23.1608H72.1979L72.1157 24.6003H70.717L70.6348 22.204V21.7833H70.9225C71.0663 21.7833 71.2107 21.7311 71.3545 21.6281C71.4984 21.5251 71.6189 21.3642 71.7147 21.1448C71.8999 20.7329 72.0334 20.202 72.1157 19.5506C72.1979 18.8991 72.2388 18.1799 72.2388 17.3908V16.2695H77.4427V21.772ZM73.5764 20.1467C73.4595 20.84 73.3016 21.3813 73.1029 21.772H75.9002V17.648H73.7611C73.7539 18.6218 73.6923 19.4554 73.5764 20.1467Z" fill="#E4E4E3"/>
<path fill-rule="evenodd" clip-rule="evenodd" d="M50.949 35.5074H49.3956V30.0463H46.4752V35.5074H44.9219V28.6172H50.949V35.5074Z" fill="#E4E4E3"/>
<path fill-rule="evenodd" clip-rule="evenodd" d="M57.0391 28.7973C57.3749 28.9168 57.6646 29.085 57.9078 29.3012C58.1516 29.5165 58.3383 29.7778 58.4687 30.0826C58.5986 30.3873 58.6638 30.7288 58.6638 31.1055C58.6638 31.5034 58.5903 31.8579 58.4429 32.1699C58.2954 32.4824 58.0931 32.7463 57.8359 32.9621C57.5788 33.1784 57.2755 33.3434 56.9263 33.4552C56.576 33.5696 56.1993 33.6254 55.7946 33.6254H54.396V35.5074H52.8535V28.6172H55.9178C56.3291 28.6172 56.7027 28.6772 57.0391 28.7973ZM55.7946 32.2579C56.206 32.2579 56.5284 32.1549 56.7617 31.949C56.994 31.7441 57.111 31.4657 57.111 31.1159C57.111 30.7733 57.0065 30.5012 56.7974 30.2983C56.5884 30.096 56.2748 29.9956 55.8562 29.9956H54.396V32.2579H55.7946Z" fill="#E4E4E3"/>
<path fill-rule="evenodd" clip-rule="evenodd" d="M65.2649 30.0055H61.6346V31.3016H64.8738V32.6485H61.6346V34.1186H65.4398V35.5074H60.1123V28.6172H65.2649V30.0055Z" fill="#E4E4E3"/>
<path fill-rule="evenodd" clip-rule="evenodd" d="M70.6114 31.1256C70.7491 31.0102 70.8179 30.8487 70.8179 30.6433C70.8179 30.382 70.7268 30.1854 70.5452 30.0524C70.3636 29.9184 70.0666 29.8511 69.6552 29.8511C69.011 29.8511 68.4076 30.0674 67.8452 30.4995L67.0432 29.4392C67.4271 29.1107 67.84 28.8669 68.2824 28.7091C68.7243 28.5518 69.2133 28.4727 69.7478 28.4727C70.1597 28.4727 70.526 28.5213 70.8484 28.617C71.1708 28.7122 71.445 28.8462 71.6711 29.018C71.8972 29.1898 72.0706 29.3937 72.1906 29.6302C72.3102 29.8661 72.3702 30.129 72.3702 30.4172C72.3702 30.7121 72.3102 30.9765 72.1906 31.2135C72.0706 31.4505 71.8905 31.6363 71.6504 31.7739V31.867C71.9795 31.9762 72.2367 32.163 72.4219 32.4269C72.6067 32.6918 72.6993 33.0147 72.6993 33.3992C72.6993 33.7215 72.6362 34.0196 72.5094 34.2943C72.3826 34.5681 72.1937 34.805 71.9433 35.0027C71.6934 35.2019 71.3814 35.3597 71.0078 35.4767C70.6337 35.5931 70.1969 35.651 69.6966 35.651C69.3949 35.651 69.1103 35.6324 68.8428 35.5946C68.5753 35.5574 68.3218 35.4969 68.0817 35.4151C67.8421 35.3328 67.6123 35.2283 67.3924 35.1015C67.1736 34.9742 66.9573 34.8185 66.7451 34.6327L67.557 33.5021C67.914 33.7836 68.2685 33.9823 68.6214 34.0982C68.9748 34.2152 69.3675 34.2736 69.7996 34.2736C70.2518 34.2736 70.5892 34.1888 70.8122 34.0216C71.0352 33.854 71.147 33.632 71.147 33.3583C71.147 32.8776 70.8344 32.638 70.2104 32.638H68.4723V31.3015H70.0459C70.286 31.3015 70.4748 31.243 70.6114 31.1256Z" fill="#E4E4E3"/>
<path fill-rule="evenodd" clip-rule="evenodd" d="M75.7606 33.2043L79.0924 28.6172H80.4501V35.5074H78.918V31.178L75.7502 35.5074H74.2383V28.6172H75.7606V33.2043Z" fill="#E4E4E3"/>
<path fill-rule="evenodd" clip-rule="evenodd" d="M88.6878 34.1186H89.6854V34.5408L89.5514 36.9474H88.1631L88.1015 35.5074H83.4425L83.3608 36.9474H81.9616L81.8799 34.5506V34.1294H82.1671C82.3114 34.1294 82.4553 34.0787 82.5991 33.9747C82.7435 33.8723 82.8635 33.7119 82.9593 33.4925C83.1445 33.0806 83.278 32.5492 83.3608 31.8977C83.4425 31.2463 83.4834 30.526 83.4834 29.7374V28.6172H88.6878V34.1186ZM84.821 32.4943C84.7041 33.1867 84.5468 33.7284 84.3481 34.1186H87.1453V29.9956H85.0062C84.999 30.9684 84.9374 31.8015 84.821 32.4943Z" fill="#E4E4E3"/>
<path fill-rule="evenodd" clip-rule="evenodd" d="M96.2962 30.0055H92.6659V31.3016H95.905V32.6485H92.6659V34.1186H96.4711V35.5074H91.1436V28.6172H96.2962V30.0055Z" fill="#E4E4E3"/>
<path fill-rule="evenodd" clip-rule="evenodd" d="M99.6681 31.3115H102.682V28.6172H104.234V35.5074H102.682V32.7412H99.6681V35.5074H98.1152V28.6172H99.6681V31.3115Z" fill="#E4E4E3"/>
<path fill-rule="evenodd" clip-rule="evenodd" d="M111.901 30.0153H109.546V35.5074H108.014V30.0153H105.658V28.6172H111.901V30.0153Z" fill="#E4E4E3"/>
<path fill-rule="evenodd" clip-rule="evenodd" d="M117.695 30.0524C117.383 29.9386 117.035 29.8816 116.651 29.8816C116.315 29.8816 116.012 29.9349 115.741 30.041C115.47 30.1476 115.239 30.2982 115.047 30.4943C114.855 30.6888 114.708 30.9206 114.604 31.1876C114.502 31.4557 114.451 31.747 114.451 32.0621C114.451 32.3917 114.503 32.6898 114.61 32.9573C114.716 33.2243 114.866 33.4519 115.057 33.6413C115.249 33.8286 115.479 33.9761 115.746 34.0832C116.013 34.1888 116.308 34.2426 116.631 34.2426C117.021 34.2426 117.387 34.1753 117.726 34.0413C118.065 33.9083 118.369 33.7148 118.636 33.4602L119.511 34.5406C118.729 35.2811 117.742 35.651 116.548 35.651C116.013 35.651 115.524 35.5672 115.078 35.3996C114.632 35.2314 114.25 34.9913 113.931 34.6798C113.612 34.3683 113.363 33.9921 113.185 33.5534C113.007 33.1146 112.918 32.6246 112.918 32.0828C112.918 31.5897 113.005 31.1224 113.18 30.6837C113.355 30.2449 113.607 29.8609 113.936 29.5319C114.265 29.2028 114.663 28.944 115.129 28.7557C115.595 28.5668 116.123 28.4727 116.713 28.4727C117.248 28.4727 117.738 28.5534 118.183 28.7138C118.629 28.8757 119.027 29.1107 119.377 29.419L118.523 30.5393C118.283 30.3277 118.007 30.1642 117.695 30.0524Z" fill="#E4E4E3"/>
<path fill-rule="evenodd" clip-rule="evenodd" d="M122.46 31.2396L123.211 31.1578L125.155 28.6172H127.058L124.497 31.8362L127.305 35.5074H125.319L123.221 32.5663H122.46V35.5074H120.938V28.6172H122.46V31.2396Z" fill="#E4E4E3"/>
<path fill-rule="evenodd" clip-rule="evenodd" d="M130.229 33.2043L133.561 28.6172H134.919V35.5074H133.387V31.178L130.219 35.5074H128.707V28.6172H130.229V33.2043Z" fill="#E4E4E3"/>
<path fill-rule="evenodd" clip-rule="evenodd" d="M139.849 31.0755H139.952L141.32 28.6172H143.223L141.021 32.0111L143.438 35.5074H141.443L139.901 32.854H139.798L138.275 35.5074H136.291L138.707 31.9283L136.507 28.6172H138.43L139.849 31.0755Z" fill="#E4E4E3"/>
<path fill-rule="evenodd" clip-rule="evenodd" d="M50.1361 42.3635H46.4644V47.855H44.9219V40.9648H50.1361V42.3635Z" fill="#E4E4E3"/>
<path fill-rule="evenodd" clip-rule="evenodd" d="M55.7139 41.1439C56.0497 41.2644 56.3394 41.4321 56.5826 41.6484C56.8263 41.8641 57.0131 42.1255 57.1435 42.4302C57.2734 42.735 57.3386 43.077 57.3386 43.4537C57.3386 43.8506 57.2651 44.2055 57.1177 44.517C56.9702 44.8301 56.7679 45.0935 56.5107 45.3092C56.2535 45.5255 55.9503 45.6901 55.6011 45.8034C55.2513 45.9162 54.8741 45.9726 54.4694 45.9726H53.0708V47.855H51.5283V40.9648H54.5931C55.0039 40.9648 55.3775 41.0243 55.7139 41.1439ZM54.4694 44.605C54.8808 44.605 55.2032 44.502 55.4365 44.2961C55.6688 44.0907 55.7858 43.8138 55.7858 43.4635C55.7858 43.1205 55.6813 42.8483 55.4722 42.6465C55.2627 42.4437 54.9491 42.3423 54.531 42.3423H53.0708V44.605H54.4694Z" fill="#E4E4E3"/>
<path fill-rule="evenodd" clip-rule="evenodd" d="M65.1992 47.857H63.4916L62.9675 46.4889H60.0155L59.5017 47.857H57.8252L60.6535 40.957H62.3502L65.1992 47.857ZM62.4635 45.1322L61.5481 42.5093H61.4452L60.52 45.1322H62.4635Z" fill="#E4E4E3"/>
<path fill-rule="evenodd" clip-rule="evenodd" d="M68.1554 43.6586H71.1684V40.9648H72.7218V47.855H71.1684V45.0883H68.1554V47.855H66.6025V40.9648H68.1554V43.6586Z" fill="#E4E4E3"/>
<path fill-rule="evenodd" clip-rule="evenodd" d="M80.3874 42.3635H78.032V47.855H76.4999V42.3635H74.1445V40.9648H80.3874V42.3635Z" fill="#E4E4E3"/>
<path fill-rule="evenodd" clip-rule="evenodd" d="M86.547 41.0925C86.9998 41.2741 87.3853 41.5261 87.7045 41.8485C88.0228 42.1698 88.2717 42.5496 88.4496 42.9847C88.6282 43.4194 88.7172 43.8949 88.7172 44.4092C88.7172 44.9034 88.6282 45.367 88.4496 45.8027C88.2717 46.2379 88.0212 46.6182 87.6988 46.9442C87.377 47.2696 86.9915 47.5268 86.5419 47.7151C86.0927 47.9045 85.5975 47.9982 85.0563 47.9982C84.5208 47.9982 84.0313 47.9081 83.5852 47.7255C83.1397 47.5444 82.7542 47.2914 82.4282 46.97C82.1028 46.6477 81.8508 46.2663 81.6728 45.8275C81.4943 45.3888 81.4053 44.9169 81.4053 44.4092C81.4053 43.9151 81.4943 43.4494 81.6728 43.0106C81.8508 42.5718 82.1028 42.191 82.4282 41.8686C82.7542 41.5468 83.1397 41.2907 83.5852 41.1033C84.0313 40.914 84.5208 40.8203 85.0563 40.8203C85.5975 40.8203 86.0948 40.9103 86.547 41.0925ZM84.1663 42.3726C83.9024 42.4901 83.6794 42.6474 83.4978 42.8461C83.3162 43.0442 83.1775 43.2781 83.0818 43.5451C82.985 43.8132 82.9374 44.1009 82.9374 44.4092C82.9374 44.7176 82.985 45.0074 83.0818 45.2785C83.1775 45.5492 83.3182 45.7841 83.503 45.9828C83.6882 46.1809 83.9107 46.3372 84.1715 46.4511C84.4323 46.5628 84.7272 46.6197 85.0563 46.6197C85.3921 46.6197 85.6917 46.5613 85.9561 46.4459C86.2195 46.3284 86.443 46.1696 86.6241 45.9667C86.8058 45.7649 86.9434 45.5295 87.0355 45.2625C87.1281 44.9955 87.1747 44.7109 87.1747 44.4092C87.1747 44.0936 87.1266 43.8002 87.0308 43.5301C86.9346 43.2585 86.7959 43.0241 86.6143 42.8249C86.4322 42.6262 86.2097 42.4725 85.9453 42.3628C85.6814 42.2531 85.3854 42.1988 85.0563 42.1988C84.7272 42.1988 84.4302 42.2562 84.1663 42.3726Z" fill="#E4E4E3"/>
<path fill-rule="evenodd" clip-rule="evenodd" d="M95.0796 41.4688C95.4946 41.8041 95.702 42.2636 95.702 42.8468C95.702 43.1344 95.642 43.3916 95.5225 43.6177C95.4019 43.8439 95.2389 44.012 95.0335 44.1217V44.2138C95.3693 44.3246 95.6389 44.5212 95.8407 44.8053C96.043 45.0898 96.1445 45.4215 96.1445 45.7982C96.1445 46.0797 96.0948 46.3441 95.9949 46.5956C95.8961 46.845 95.7419 47.0628 95.5323 47.2486C95.3233 47.4328 95.0573 47.5803 94.7355 47.691C94.4131 47.7997 94.0323 47.855 93.594 47.855H90.2617V40.9648H93.3058C94.0737 40.9648 94.6651 41.1325 95.0796 41.4688ZM93.3679 43.6798C93.6282 43.6798 93.832 43.6162 93.9795 43.4889C94.127 43.3621 94.2004 43.1893 94.2004 42.9694C94.2004 42.5109 93.9055 42.2812 93.3161 42.2812H91.7944V43.6798H93.3679ZM93.6142 46.5387C94.2931 46.5387 94.6325 46.267 94.6325 45.7263C94.6325 45.465 94.5435 45.2689 94.365 45.1349C94.187 45.0014 93.9335 44.9341 93.6044 44.9341H91.7944V46.5387H93.6142Z" fill="#E4E4E3"/>
</svg>
