<svg width="32" height="32" viewBox="0 0 32 32" fill="none" xmlns="http://www.w3.org/2000/svg">
<circle cx="16" cy="16" r="16" fill="#E6560A"/>
<path fill-rule="evenodd" clip-rule="evenodd" d="M16 6C10.48 6 6 10.48 6 16C6 21.52 10.48 26 16 26C21.52 26 26 21.52 26 16C26 10.48 21.52 6 16 6ZM16 9C17.66 9 19 10.34 19 12C19 13.66 17.66 15 16 15C14.34 15 13 13.66 13 12C13 10.34 14.34 9 16 9ZM10 19.98C11.29 21.92 13.5 23.2 16 23.2C18.5 23.2 20.71 21.92 22 19.98C21.97 17.99 17.99 16.9 16 16.9C14 16.9 10.03 17.99 10 19.98Z" fill="white"/>
</svg>
