<svg width="18" height="18" viewBox="0 0 18 18" fill="none" xmlns="http://www.w3.org/2000/svg">
<path fill-rule="evenodd" clip-rule="evenodd" d="M14.9108 0.377197C14.7146 0.296062 14.5121 0.227031 14.304 0.170968C12.5832 -0.292675 10.7471 0.202019 9.48742 1.46873C8.26221 2.70074 7.76323 4.481 8.1611 6.16964C8.10148 6.21959 8.04362 6.27268 7.98768 6.32892L0.749538 13.6072C-0.249846 14.6121 -0.249846 16.2414 0.749538 17.2463C1.74892 18.2512 3.36923 18.2512 4.36861 17.2463L11.6068 9.96805C11.6435 9.93114 11.6788 9.89338 11.7128 9.85483C11.7162 9.85572 11.7195 9.8566 11.7228 9.85751C13.4436 10.3212 15.2797 9.82647 16.5394 8.55978C17.7991 7.29309 18.2911 5.44682 17.83 3.71648C17.7742 3.50736 17.7056 3.30378 17.625 3.10664L15.2757 5.46902L15.2747 5.46802L14.2652 6.48309L12.126 5.90672L11.5528 3.75569L12.5623 2.74063L12.5613 2.73967L14.9108 0.377197Z" fill="#72D0DC"/>
</svg>
