<svg width="132" height="32" viewBox="0 0 132 32" fill="none" xmlns="http://www.w3.org/2000/svg">
<rect width="132" height="32" rx="6" fill="#54A9EA"/>
<path d="M13.2374 14.9396C18.0693 12.7902 21.2912 11.3732 22.9034 10.6885C27.5063 8.73378 28.4627 8.39421 29.0862 8.38292C29.2232 8.38057 29.5298 8.41525 29.7284 8.57975C29.8961 8.71869 29.9422 8.90638 29.9643 9.03805C29.9864 9.1698 30.0139 9.46985 29.992 9.70426C29.7425 12.3802 28.6633 18.874 28.1142 21.871C27.8818 23.1392 27.4244 23.5644 26.9815 23.606C26.019 23.6964 25.288 22.9566 24.3558 22.3326C22.897 21.3563 22.0729 20.7484 20.6569 19.7958C19.0205 18.6947 20.0813 18.0896 21.0139 17.1005C21.258 16.8418 25.4988 12.9032 25.5809 12.546C25.5912 12.5013 25.6007 12.3347 25.5038 12.2468C25.4069 12.1588 25.2639 12.1889 25.1606 12.2128C25.0144 12.2467 22.6839 13.8194 18.1694 16.9309C17.5079 17.3947 16.9087 17.6206 16.3719 17.6088C15.7801 17.5957 14.6418 17.2672 13.7955 16.9863C12.7575 16.6417 11.9325 16.4597 12.0044 15.8746C12.0418 15.5698 12.4528 15.2582 13.2374 14.9396Z" fill="white"/>
<path d="M39.6426 10.9785H47.5244V21H46.1914V12.1611H40.9688V21H39.6426V10.9785ZM49.3262 17.3701C49.3262 16.0257 49.6999 15.0299 50.4473 14.3828C51.0716 13.8451 51.8327 13.5762 52.7305 13.5762C53.7285 13.5762 54.5443 13.9043 55.1777 14.5605C55.8112 15.2122 56.1279 16.1146 56.1279 17.2676C56.1279 18.2018 55.9867 18.9378 55.7041 19.4756C55.4261 20.0088 55.0182 20.4235 54.4805 20.7197C53.9473 21.016 53.3639 21.1641 52.7305 21.1641C51.7142 21.1641 50.8916 20.8382 50.2627 20.1865C49.6383 19.5348 49.3262 18.596 49.3262 17.3701ZM50.5908 17.3701C50.5908 18.2998 50.7936 18.9971 51.1992 19.4619C51.6048 19.9222 52.1152 20.1523 52.7305 20.1523C53.3411 20.1523 53.8493 19.9199 54.2549 19.4551C54.6605 18.9902 54.8633 18.2816 54.8633 17.3291C54.8633 16.4313 54.6582 15.7523 54.248 15.292C53.8424 14.8271 53.3366 14.5947 52.7305 14.5947C52.1152 14.5947 51.6048 14.8249 51.1992 15.2852C50.7936 15.7454 50.5908 16.4404 50.5908 17.3701ZM58.4834 13.7402H63.542V19.9883H64.3281V23.0576H63.3164V21H57.6016V23.0576H56.5898V19.9883H57.2393C58.1051 18.8125 58.5199 16.7298 58.4834 13.7402ZM59.5088 14.7588C59.4176 17.1149 59.0531 18.8581 58.415 19.9883H62.3184V14.7588H59.5088ZM65.9316 13.7402H67.1621V16.8779C67.554 16.8779 67.8275 16.8027 67.9824 16.6523C68.1419 16.502 68.3743 16.0645 68.6797 15.3398C68.9212 14.7656 69.1172 14.3874 69.2676 14.2051C69.418 14.0228 69.5911 13.8997 69.7871 13.8359C69.9831 13.7721 70.2975 13.7402 70.7305 13.7402H70.9766V14.7588L70.6348 14.752C70.3112 14.752 70.1038 14.7998 70.0127 14.8955C69.917 14.9958 69.7712 15.2943 69.5752 15.791C69.3883 16.265 69.2174 16.5931 69.0625 16.7754C68.9076 16.9577 68.6683 17.124 68.3447 17.2744C68.8734 17.4157 69.3929 17.9079 69.9033 18.751L71.25 21H69.8965L68.584 18.751C68.3151 18.2998 68.0804 18.0036 67.8799 17.8623C67.6794 17.7165 67.4401 17.6436 67.1621 17.6436V21H65.9316V13.7402ZM73.0791 13.7402H78.7939V21H77.5703V14.7588H74.3096V18.375C74.3096 19.2181 74.2822 19.7741 74.2275 20.043C74.1729 20.3118 74.0225 20.5465 73.7764 20.7471C73.5303 20.9476 73.1748 21.0479 72.71 21.0479C72.4229 21.0479 72.0924 21.0296 71.7188 20.9932V19.9678H72.2588C72.514 19.9678 72.6963 19.9427 72.8057 19.8926C72.915 19.8379 72.988 19.7536 73.0244 19.6396C73.0609 19.5257 73.0791 19.1543 73.0791 18.5254V13.7402ZM80.917 13.7402H82.1475V16.7754H83.6377C83.7471 15.7363 84.0706 14.9434 84.6084 14.3965C85.1507 13.8496 85.8525 13.5762 86.7139 13.5762C87.4476 13.5762 88.0264 13.7243 88.4502 14.0205C88.874 14.3167 89.2227 14.7246 89.4961 15.2441C89.7741 15.7637 89.9131 16.4632 89.9131 17.3428C89.9131 18.596 89.6283 19.5462 89.0586 20.1934C88.4889 20.8405 87.7165 21.1641 86.7412 21.1641C85.8343 21.1641 85.1074 20.8633 84.5605 20.2617C84.0137 19.6602 83.7061 18.8353 83.6377 17.7871H82.1475V21H80.917V13.7402ZM86.7822 14.6221C86.1807 14.6221 85.7113 14.8545 85.374 15.3193C85.0413 15.7796 84.875 16.4268 84.875 17.2607C84.875 18.2588 85.0436 18.9902 85.3809 19.4551C85.7181 19.9199 86.1693 20.1523 86.7344 20.1523C87.2949 20.1523 87.7529 19.9382 88.1084 19.5098C88.4684 19.0768 88.6484 18.3818 88.6484 17.4248C88.6484 16.4906 88.4935 15.791 88.1836 15.3262C87.8737 14.8568 87.4066 14.6221 86.7822 14.6221ZM90.8877 13.7402H92.1182V15.1143C92.1182 15.7067 92.1523 16.1374 92.2207 16.4062C92.2936 16.6706 92.4645 16.903 92.7334 17.1035C93.0023 17.2995 93.3395 17.3975 93.7451 17.3975C94.21 17.3975 94.8115 17.2744 95.5498 17.0283V13.7402H96.7803V21H95.5498V18.0742C94.7933 18.3112 94.0869 18.4297 93.4307 18.4297C92.8792 18.4297 92.3916 18.2907 91.9678 18.0127C91.5485 17.7301 91.2637 17.3861 91.1133 16.9805C90.9629 16.5749 90.8877 16.1283 90.8877 15.6406V13.7402ZM98.8896 13.7402H100.12V19.2773L103.531 13.7402H104.857V21H103.627V15.4971L100.216 21H98.8896V13.7402ZM106.297 13.7402H112.196V14.7588H109.858V21H108.635V14.7588H106.297V13.7402ZM113.602 13.7402H114.832V16.5771H116.391C117.407 16.5771 118.188 16.7754 118.735 17.1719C119.287 17.5638 119.562 18.1061 119.562 18.7988C119.562 19.4049 119.332 19.9245 118.872 20.3574C118.416 20.7858 117.685 21 116.678 21H113.602V13.7402ZM114.832 19.9883H116.124C116.903 19.9883 117.459 19.8926 117.792 19.7012C118.125 19.5098 118.291 19.2113 118.291 18.8057C118.291 18.4912 118.168 18.2109 117.922 17.9648C117.676 17.7188 117.131 17.5957 116.288 17.5957H114.832V19.9883Z" fill="white"/>
</svg>
