<svg width="40" height="41" viewBox="0 0 40 41" fill="none" xmlns="http://www.w3.org/2000/svg">
<path d="M19.665 36.33C28.8688 36.33 36.33 28.8688 36.33 19.665C36.33 10.4612 28.8688 3 19.665 3C10.4612 3 3 10.4612 3 19.665C3 28.8688 10.4612 36.33 19.665 36.33Z" fill="#58646A"/>
<path d="M9.9363 19.5186C9.9363 19.5186 18.2688 16.099 21.1586 14.8948C22.2665 14.4132 26.0233 12.8719 26.0233 12.8719C26.0233 12.8719 27.7573 12.1976 27.6127 13.8352C27.5645 14.5095 27.1792 16.8696 26.794 19.4223C26.2159 23.0347 25.5898 26.9841 25.5898 26.9841C25.5898 26.9841 25.4935 28.092 24.6747 28.2846C23.8559 28.4773 22.5072 27.6103 22.2665 27.4176C22.0738 27.2732 18.6541 25.1057 17.4018 24.0461C17.0647 23.7571 16.6794 23.1792 17.45 22.5049C19.1839 20.9154 21.255 18.9407 22.5072 17.6884C23.0853 17.1104 23.6632 15.7618 21.255 17.3994C17.8353 19.7595 14.4638 21.975 14.4638 21.975C14.4638 21.975 13.6931 22.4567 12.2482 22.0232C10.8032 21.5897 9.11745 21.0117 9.11745 21.0117C9.11745 21.0117 7.96156 20.2893 9.9363 19.5186Z" fill="white"/>
</svg>
