<svg width="32" height="32" viewBox="0 0 32 32" fill="none" xmlns="http://www.w3.org/2000/svg">
<path fill-rule="evenodd" clip-rule="evenodd" d="M20.9118 0H11.0882C2.12279 0 0 2.12279 0 11.0882V20.9118C0 29.8772 2.12279 32 11.0882 32H20.9118C29.8772 32 32 29.8772 32 20.9118V11.0882C32 2.12279 29.8772 0 20.9118 0ZM25.4962 10.1623C26.1963 10.1623 26.3543 10.5237 26.1963 11.0205C25.9496 12.1591 23.9008 15.1795 23.2663 16.115C23.1457 16.2927 23.0762 16.3952 23.0798 16.3952C22.8314 16.8017 22.7411 16.9824 23.0798 17.434C23.2023 17.601 23.4619 17.8558 23.7587 18.147C24.0639 18.4465 24.4084 18.7846 24.6832 19.1052C25.6768 20.2343 26.4447 21.1828 26.6479 21.8377C26.8286 22.4926 26.5124 22.8313 25.8349 22.8313H23.5089C22.8925 22.8313 22.5747 22.4773 21.8975 21.7229C21.6072 21.3994 21.2508 21.0023 20.7764 20.5279C19.3988 19.1955 18.7891 19.0148 18.4503 19.0148C17.9761 19.0148 17.8406 19.1277 17.8406 19.8052V21.9054C17.8406 22.47 17.6599 22.8088 16.1694 22.8088C13.7079 22.8088 10.9754 21.3183 9.05582 18.5406C6.16521 14.4757 5.3748 11.4044 5.3748 10.7946C5.3748 10.4559 5.48772 10.1397 6.16521 10.1397H8.51383C9.10099 10.1397 9.32681 10.3882 9.55264 11.0431C10.7044 14.3627 12.6239 17.2759 13.4143 17.2759C13.7079 17.2759 13.8434 17.1404 13.8434 16.3952V12.9626C13.7876 11.9869 13.448 11.5618 13.1961 11.2466C13.0399 11.0511 12.9175 10.8978 12.9175 10.6817C12.9175 10.4107 13.1433 10.1397 13.5047 10.1397H17.1631C17.6599 10.1397 17.8406 10.4107 17.8406 10.9979V15.6274C17.8406 16.1242 18.0438 16.3049 18.2019 16.3049C18.4955 16.3049 18.7439 16.1242 19.2859 15.5822C20.957 13.7078 22.1539 10.8172 22.1539 10.8172C22.312 10.4785 22.583 10.1623 23.1701 10.1623H25.4962Z" fill="#A0ABB5"/>
</svg>
