<svg width="40" height="40" viewBox="0 0 40 40" fill="none" xmlns="http://www.w3.org/2000/svg">
<path d="M35.9689 12.0031C35.5855 10.5597 34.4561 9.42287 33.0217 9.03708C30.4224 8.33594 19.9987 8.33594 19.9987 8.33594C19.9987 8.33594 9.57509 8.33594 6.97565 9.03708C5.54127 9.42287 4.41158 10.5597 4.02848 12.0031C3.33203 14.6195 3.33203 20.0784 3.33203 20.0784C3.33203 20.0784 3.33203 25.5371 4.02848 28.1538C4.41158 29.5974 5.54127 30.7339 6.97551 31.1201C9.57495 31.8209 19.9986 31.8209 19.9986 31.8209C19.9986 31.8209 30.4223 31.8209 33.0216 31.1201C34.456 30.734 35.5854 29.5974 35.9688 28.1539C36.6654 25.5373 36.6654 20.0786 36.6654 20.0786C36.6654 20.0786 36.6654 14.6196 35.9688 12.0033" fill="#58646A"/>
<path d="M16.5898 25.0336L25.3019 20.0776L16.5898 15.1211V25.0336Z" fill="white"/>
</svg>
